Khula-wt937.36.ufo
<glyph name="exclam.deva" format="1">
  <advance width="535"/>
  <unicode hex="0021"/>
  <outline>
    <contour>
      <point x="417" y="464" type="line"/>
      <point x="120" y="464" type="line"/>
      <point x="74" y="1316" type="line"/>
      <point x="463" y="1316" type="line"/>
    </contour>
    <contour>
      <point x="77" y="149" type="curve" smooth="yes"/>
      <point x="77" y="258"/>
      <point x="144" y="322"/>
      <point x="267" y="322" type="curve" smooth="yes"/>
      <point x="390" y="322"/>
      <point x="454" y="258"/>
      <point x="454" y="149" type="curve" smooth="yes"/>
      <point x="454" y="41"/>
      <point x="384" y="-23"/>
      <point x="267" y="-23" type="curve" smooth="yes"/>
      <point x="148" y="-23"/>
      <point x="77" y="41"/>
    </contour>
  </outline>
</glyph>
<glyph name="quotedbl.deva" format="1">
  <advance width="966"/>
  <unicode hex="0022"/>
  <outline>
    <contour>
      <point x="429" y="1316" type="line"/>
      <point x="392" y="841" type="line"/>
      <point x="146" y="841" type="line"/>
      <point x="109" y="1316" type="line"/>
    </contour>
    <contour>
      <point x="857" y="1316" type="line"/>
      <point x="820" y="841" type="line"/>
      <point x="573" y="841" type="line"/>
      <point x="536" y="1316" type="line"/>
    </contour>
  </outline>
</glyph>
<glyph name="parenleft.deva" format="1">
  <advance width="661"/>
  <unicode hex="0028"/>
  <outline>
    <contour>
      <point x="67" y="524" type="curve" smooth="yes"/>
      <point x="67" y="872"/>
      <point x="152" y="1154"/>
      <point x="319" y="1353" type="curve"/>
      <point x="612" y="1353" type="line"/>
      <point x="537" y="1248"/>
      <point x="478" y="1124"/>
      <point x="437" y="982" type="curve" smooth="yes"/>
      <point x="396" y="840"/>
      <point x="376" y="688"/>
      <point x="376" y="526" type="curve" smooth="yes"/>
      <point x="376" y="369"/>
      <point x="396" y="221"/>
      <point x="435" y="80" type="curve" smooth="yes"/>
      <point x="475" y="-61"/>
      <point x="533" y="-185"/>
      <point x="610" y="-292" type="curve"/>
      <point x="319" y="-292" type="line"/>
      <point x="154" y="-101"/>
      <point x="67" y="179"/>
    </contour>
  </outline>
</glyph>
<glyph name="period.deva" format="1">
  <advance width="533"/>
  <unicode hex="002E"/>
  <outline>
    <contour>
      <point x="77" y="149" type="curve" smooth="yes"/>
      <point x="77" y="260"/>
      <point x="144" y="322"/>
      <point x="269" y="322" type="curve" smooth="yes"/>
      <point x="388" y="322"/>
      <point x="454" y="260"/>
      <point x="454" y="149" type="curve" smooth="yes"/>
      <point x="454" y="41"/>
      <point x="384" y="-23"/>
      <point x="269" y="-23" type="curve" smooth="yes"/>
      <point x="150" y="-23"/>
      <point x="77" y="40"/>
    </contour>
  </outline>
</glyph>
<glyph name="five.deva" format="1">
  <advance width="1080"/>
  <unicode hex="0035"/>
  <outline>
    <contour>
      <point x="598" y="862" type="curve" smooth="yes"/>
      <point x="824" y="865"/>
      <point x="1000" y="690"/>
      <point x="995" y="438" type="curve"/>
      <point x="995" y="145"/>
      <point x="820" y="-18"/>
      <point x="461" y="-18" type="curve" smooth="yes"/>
      <point x="307" y="-18"/>
      <point x="182" y="6"/>
      <point x="85" y="53" type="curve"/>
      <point x="85" y="345" type="line"/>
      <point x="137" y="321"/>
      <point x="196" y="301"/>
      <point x="261" y="285" type="curve"/>
      <point x="327" y="270"/>
      <point x="384" y="262"/>
      <point x="431" y="262" type="curve" smooth="yes"/>
      <point x="563" y="262"/>
      <point x="636" y="319"/>
      <point x="636" y="427" type="curve" smooth="yes"/>
      <point x="636" y="528"/>
      <point x="565" y="588"/>
      <point x="418" y="588" type="curve" smooth="yes"/>
      <point x="363" y="588"/>
      <point x="303" y="577"/>
      <point x="238" y="556" type="curve"/>
      <point x="107" y="621" type="line"/>
      <point x="157" y="1316" type="line"/>
      <point x="907" y="1316" type="line"/>
      <point x="907" y="1020" type="line"/>
      <point x="459" y="1020" type="line"/>
      <point x="443" y="846" type="line"/>
      <point x="490" y="855"/>
      <point x="523" y="859"/>
      <point x="542" y="860" type="curve" smooth="yes"/>
      <point x="562" y="861"/>
      <point x="581" y="862"/>
    </contour>
  </outline>
</glyph>
<glyph name="eight.deva" format="1">
  <advance width="1080"/>
  <unicode hex="0038"/>
  <outline>
    <contour>
      <point x="544" y="1335" type="curve" smooth="yes"/>
      <point x="682" y="1335"/>
      <point x="790" y="1307"/>
      <point x="867" y="1251" type="curve" smooth="yes"/>
      <point x="944" y="1195"/>
      <point x="983" y="1116"/>
      <point x="983" y="1013" type="curve" smooth="yes"/>
      <point x="983" y="874"/>
      <point x="913" y="770"/>
      <point x="756" y="693" type="curve"/>
      <point x="853" y="638"/>
      <point x="922" y="582"/>
      <point x="961" y="527" type="curve" smooth="yes"/>
      <point x="1001" y="472"/>
      <point x="1021" y="413"/>
      <point x="1021" y="350" type="curve" smooth="yes"/>
      <point x="1021" y="233"/>
      <point x="979" y="143"/>
      <point x="894" y="78" type="curve" smooth="yes"/>
      <point x="810" y="14"/>
      <point x="692" y="-18"/>
      <point x="540" y="-18" type="curve" smooth="yes"/>
      <point x="231" y="-18"/>
      <point x="61" y="111"/>
      <point x="61" y="346" type="curve" smooth="yes"/>
      <point x="61" y="423"/>
      <point x="79" y="488"/>
      <point x="116" y="541" type="curve" smooth="yes"/>
      <point x="153" y="595"/>
      <point x="214" y="644"/>
      <point x="301" y="688" type="curve"/>
      <point x="161" y="781"/>
      <point x="100" y="887"/>
      <point x="100" y="1015" type="curve" smooth="yes"/>
      <point x="100" y="1116"/>
      <point x="139" y="1194"/>
      <point x="218" y="1250" type="curve" smooth="yes"/>
      <point x="297" y="1307"/>
      <point x="405" y="1335"/>
    </contour>
    <contour>
      <point x="387" y="361" type="curve" smooth="yes"/>
      <point x="387" y="286"/>
      <point x="443" y="238"/>
      <point x="536" y="238" type="curve" smooth="yes"/>
      <point x="642" y="238"/>
      <point x="695" y="277"/>
      <point x="695" y="354" type="curve" smooth="yes"/>
      <point x="695" y="413"/>
      <point x="655" y="465"/>
      <point x="536" y="536" type="curve"/>
      <point x="429" y="480"/>
      <point x="387" y="425"/>
    </contour>
    <contour>
      <point x="542" y="1078" type="curve" smooth="yes"/>
      <point x="481" y="1078"/>
      <point x="433" y="1039"/>
      <point x="433" y="983" type="curve" smooth="yes"/>
      <point x="433" y="931"/>
      <point x="468" y="885"/>
      <point x="538" y="846" type="curve"/>
      <point x="623" y="895"/>
      <point x="649" y="931"/>
      <point x="649" y="983" type="curve" smooth="yes"/>
      <point x="649" y="1040"/>
      <point x="601" y="1078"/>
    </contour>
  </outline>
</glyph>
<glyph name="equal.deva" format="1">
  <advance width="1043"/>
  <unicode hex="003D"/>
  <outline>
    <contour>
      <point x="65" y="733" type="line"/>
      <point x="65" y="975" type="line"/>
      <point x="978" y="975" type="line"/>
      <point x="978" y="733" type="line"/>
    </contour>
    <contour>
      <point x="65" y="322" type="line"/>
      <point x="65" y="566" type="line"/>
      <point x="978" y="566" type="line"/>
      <point x="978" y="322" type="line"/>
    </contour>
  </outline>
</glyph>
<glyph name="A" format="1">
  <advance width="1338"/>
  <unicode hex="0041"/>
  <outline>
    <contour>
      <point x="949" y="0" type="line"/>
      <point x="885" y="247" type="line"/>
      <point x="457" y="247" type="line"/>
      <point x="391" y="0" type="line"/>
      <point x="0" y="0" type="line"/>
      <point x="429" y="1321" type="line"/>
      <point x="904" y="1321" type="line"/>
      <point x="1338" y="0" type="line"/>
    </contour>
    <contour>
      <point x="811" y="538" type="line"/>
      <point x="754" y="754" type="line" smooth="yes"/>
      <point x="741" y="802"/>
      <point x="725" y="864"/>
      <point x="706" y="940" type="curve" smooth="yes"/>
      <point x="687" y="1017"/>
      <point x="675" y="1071"/>
      <point x="669" y="1104" type="curve"/>
      <point x="664" y="1073"/>
      <point x="653" y="1023"/>
      <point x="637" y="953" type="curve" smooth="yes"/>
      <point x="621" y="883"/>
      <point x="586" y="745"/>
      <point x="531" y="538" type="curve"/>
    </contour>
  </outline>
</glyph>
<glyph name="M" format="1">
  <advance width="1782"/>
  <unicode hex="004D"/>
  <outline>
    <contour>
      <point x="715" y="0" type="line"/>
      <point x="446" y="948" type="line"/>
      <point x="438" y="948" type="line"/>
      <point x="451" y="787"/>
      <point x="457" y="661"/>
      <point x="457" y="571" type="curve" smooth="yes"/>
      <point x="457" y="0" type="line"/>
      <point x="142" y="0" type="line"/>
      <point x="142" y="1316" type="line"/>
      <point x="616" y="1316" type="line"/>
      <point x="890" y="382" type="line"/>
      <point x="897" y="382" type="line"/>
      <point x="1166" y="1316" type="line"/>
      <point x="1641" y="1316" type="line"/>
      <point x="1641" y="0" type="line"/>
      <point x="1314" y="0" type="line"/>
      <point x="1314" y="577" type="line" smooth="yes"/>
      <point x="1314" y="607"/>
      <point x="1314" y="640"/>
      <point x="1315" y="677" type="curve" smooth="yes"/>
      <point x="1316" y="714"/>
      <point x="1320" y="803"/>
      <point x="1327" y="946" type="curve"/>
      <point x="1319" y="946" type="line"/>
      <point x="1054" y="0" type="line"/>
    </contour>
  </outline>
</glyph>
<glyph name="Q" format="1">
  <advance width="1469"/>
  <unicode hex="0051"/>
  <outline>
    <contour>
      <point x="1373" y="660" type="curve" smooth="yes"/>
      <point x="1373" y="361"/>
      <point x="1278" y="160"/>
      <point x="1089" y="57" type="curve"/>
      <point x="1410" y="-313" type="line"/>
      <point x="967" y="-313" type="line"/>
      <point x="735" y="-21" type="line"/>
      <point x="734" y="-20" type="line"/>
      <point x="734" y="-19" type="line"/>
      <point x="733" y="-18" type="line"/>
      <point x="321" y="-18"/>
      <point x="94" y="218"/>
      <point x="94" y="661" type="curve" smooth="yes"/>
      <point x="94" y="1100"/>
      <point x="318" y="1336"/>
      <point x="735" y="1336" type="curve" smooth="yes"/>
      <point x="1154" y="1336"/>
      <point x="1373" y="1104"/>
    </contour>
    <contour>
      <point x="468" y="660" type="curve" smooth="yes"/>
      <point x="468" y="405"/>
      <point x="556" y="278"/>
      <point x="733" y="278" type="curve" smooth="yes"/>
      <point x="913" y="278"/>
      <point x="999" y="397"/>
      <point x="999" y="660" type="curve" smooth="yes"/>
      <point x="999" y="923"/>
      <point x="911" y="1045"/>
      <point x="735" y="1045" type="curve" smooth="yes"/>
      <point x="557" y="1045"/>
      <point x="468" y="917"/>
    </contour>
  </outline>
</glyph>
<glyph name="R" format="1">
  <advance width="1247"/>
  <unicode hex="0052"/>
  <outline>
    <contour>
      <point x="498" y="479" type="line"/>
      <point x="498" y="0" type="line"/>
      <point x="142" y="0" type="line"/>
      <point x="142" y="1316" type="line"/>
      <point x="573" y="1316" type="line" smooth="yes"/>
      <point x="931" y="1316"/>
      <point x="1110" y="1186"/>
      <point x="1110" y="927" type="curve" smooth="yes"/>
      <point x="1110" y="774"/>
      <point x="1035" y="656"/>
      <point x="886" y="573" type="curve"/>
      <point x="1270" y="0" type="line"/>
      <point x="867" y="0" type="line"/>
      <point x="588" y="479" type="line"/>
    </contour>
    <contour>
      <point x="498" y="746" type="line"/>
      <point x="564" y="746" type="line" smooth="yes"/>
      <point x="689" y="746"/>
      <point x="751" y="801"/>
      <point x="751" y="911" type="curve" smooth="yes"/>
      <point x="751" y="1002"/>
      <point x="690" y="1047"/>
      <point x="568" y="1047" type="curve" smooth="yes"/>
      <point x="498" y="1047" type="line"/>
    </contour>
  </outline>
</glyph>
<glyph name="U" format="1">
  <advance width="1395"/>
  <unicode hex="0055"/>
  <outline>
    <contour>
      <point x="1261" y="1316" type="line"/>
      <point x="1261" y="524" type="line" smooth="yes"/>
      <point x="1261" y="351"/>
      <point x="1212" y="218"/>
      <point x="1114" y="123" type="curve" smooth="yes"/>
      <point x="1017" y="29"/>
      <point x="876" y="-18"/>
      <point x="693" y="-18" type="curve" smooth="yes"/>
      <point x="514" y="-18"/>
      <point x="376" y="28"/>
      <point x="279" y="119" type="curve"/>
      <point x="183" y="211"/>
      <point x="135" y="343"/>
      <point x="135" y="516" type="curve" smooth="yes"/>
      <point x="135" y="1316" type="line"/>
      <point x="492" y="1316" type="line"/>
      <point x="492" y="544" type="line" smooth="yes"/>
      <point x="492" y="357"/>
      <point x="563" y="278"/>
      <point x="698" y="278" type="curve" smooth="yes"/>
      <point x="843" y="278"/>
      <point x="905" y="356"/>
      <point x="905" y="545" type="curve" smooth="yes"/>
      <point x="905" y="1316" type="line"/>
    </contour>
  </outline>
</glyph>
<glyph name="W" format="1">
  <advance width="1915"/>
  <unicode hex="0057"/>
  <outline>
    <contour>
      <point x="1563" y="0" type="line"/>
      <point x="1143" y="0" type="line"/>
      <point x="1017" y="573" type="line"/>
      <point x="1011" y="597"/>
      <point x="1001" y="645"/>
      <point x="988" y="716" type="curve" smooth="yes"/>
      <point x="975" y="787"/>
      <point x="966" y="847"/>
      <point x="960" y="895" type="curve"/>
      <point x="955" y="856"/>
      <point x="948" y="808"/>
      <point x="937" y="750" type="curve" smooth="yes"/>
      <point x="926" y="692"/>
      <point x="916" y="639"/>
      <point x="905" y="590" type="curve" smooth="yes"/>
      <point x="774" y="0" type="line"/>
      <point x="354" y="0" type="line"/>
      <point x="28" y="1316" type="line"/>
      <point x="371" y="1316" type="line"/>
      <point x="514" y="656" type="line" smooth="yes"/>
      <point x="546" y="510"/>
      <point x="568" y="394"/>
      <point x="580" y="308" type="curve"/>
      <point x="588" y="369"/>
      <point x="602" y="452"/>
      <point x="622" y="557" type="curve" smooth="yes"/>
      <point x="642" y="662"/>
      <point x="661" y="749"/>
      <point x="679" y="818" type="curve"/>
      <point x="795" y="1316" type="line"/>
      <point x="1124" y="1316" type="line"/>
      <point x="1237" y="818" type="line"/>
      <point x="1256" y="738"/>
      <point x="1275" y="646"/>
      <point x="1295" y="541" type="curve" smooth="yes"/>
      <point x="1315" y="437"/>
      <point x="1328" y="359"/>
      <point x="1335" y="308" type="curve"/>
      <point x="1342" y="375"/>
      <point x="1364" y="490"/>
      <point x="1399" y="654" type="curve"/>
      <point x="1544" y="1316" type="line"/>
      <point x="1887" y="1316" type="line"/>
    </contour>
  </outline>
</glyph>
<glyph name="asciicircum.deva" format="1">
  <advance width="967"/>
  <unicode hex="005E"/>
  <outline>
    <contour>
      <point x="-14" y="452" type="line"/>
      <point x="382" y="1321" type="line"/>
      <point x="535" y="1321" type="line"/>
      <point x="992" y="452" type="line"/>
      <point x="726" y="452" type="line"/>
      <point x="466" y="971" type="line"/>
      <point x="355" y="709" type="line"/>
      <point x="243" y="452" type="line"/>
    </contour>
  </outline>
</glyph>
<glyph name="a" format="1">
  <advance width="1148"/>
  <unicode hex="0061"/>
  <outline>
    <contour>
      <point x="787" y="0" type="line"/>
      <point x="719" y="135" type="line"/>
      <point x="712" y="135" type="line"/>
      <point x="665" y="76"/>
      <point x="616" y="36"/>
      <point x="567" y="14" type="curve" smooth="yes"/>
      <point x="518" y="-7"/>
      <point x="454" y="-18"/>
      <point x="376" y="-18" type="curve" smooth="yes"/>
      <point x="184" y="-18"/>
      <point x="67" y="103"/>
      <point x="67" y="311" type="curve" smooth="yes"/>
      <point x="67" y="528"/>
      <point x="221" y="631"/>
      <point x="508" y="643" type="curve"/>
      <point x="679" y="649" type="line"/>
      <point x="679" y="663" type="line" smooth="yes"/>
      <point x="679" y="747"/>
      <point x="637" y="789"/>
      <point x="554" y="789" type="curve" smooth="yes"/>
      <point x="480" y="789"/>
      <point x="386" y="764"/>
      <point x="271" y="714" type="curve"/>
      <point x="169" y="946" type="line"/>
      <point x="288" y="1007"/>
      <point x="438" y="1038"/>
      <point x="619" y="1038" type="curve" smooth="yes"/>
      <point x="750" y="1038"/>
      <point x="851" y="1005"/>
      <point x="922" y="940" type="curve" smooth="yes"/>
      <point x="994" y="875"/>
      <point x="1030" y="785"/>
      <point x="1030" y="669" type="curve" smooth="yes"/>
      <point x="1030" y="0" type="line"/>
    </contour>
    <contour>
      <point x="526" y="230" type="curve" smooth="yes"/>
      <point x="568" y="230"/>
      <point x="604" y="243"/>
      <point x="634" y="270" type="curve" smooth="yes"/>
      <point x="665" y="297"/>
      <point x="680" y="333"/>
      <point x="680" y="376" type="curve" smooth="yes"/>
      <point x="680" y="455" type="line"/>
      <point x="599" y="452" type="line" smooth="yes"/>
      <point x="484" y="447"/>
      <point x="426" y="405"/>
      <point x="426" y="324" type="curve" smooth="yes"/>
      <point x="426" y="261"/>
      <point x="459" y="230"/>
    </contour>
  </outline>
</glyph>
<glyph name="f" format="1">
  <advance width="761"/>
  <unicode hex="0066"/>
  <outline>
    <contour>
      <point x="744" y="756" type="line"/>
      <point x="527" y="756" type="line"/>
      <point x="527" y="0" type="line"/>
      <point x="175" y="0" type="line"/>
      <point x="175" y="756" type="line"/>
      <point x="40" y="756" type="line"/>
      <point x="40" y="929" type="line"/>
      <point x="183" y="1015" type="line"/>
      <point x="183" y="1032" type="line" smooth="yes"/>
      <point x="183" y="1167"/>
      <point x="210" y="1263"/>
      <point x="265" y="1322" type="curve" smooth="yes"/>
      <point x="320" y="1381"/>
      <point x="408" y="1410"/>
      <point x="529" y="1410" type="curve" smooth="yes"/>
      <point x="576" y="1410"/>
      <point x="620" y="1406"/>
      <point x="661" y="1399" type="curve" smooth="yes"/>
      <point x="703" y="1392"/>
      <point x="752" y="1380"/>
      <point x="807" y="1362" type="curve"/>
      <point x="732" y="1134" type="line"/>
      <point x="689" y="1146"/>
      <point x="646" y="1152"/>
      <point x="605" y="1152" type="curve" smooth="yes"/>
      <point x="550" y="1152"/>
      <point x="527" y="1120"/>
      <point x="527" y="1047" type="curve" smooth="yes"/>
      <point x="527" y="1020" type="line"/>
      <point x="744" y="1020" type="line"/>
    </contour>
  </outline>
</glyph>
<glyph name="m" format="1">
  <advance width="1843"/>
  <unicode hex="006D"/>
  <outline>
    <contour>
      <point x="1373" y="0" type="line"/>
      <point x="1373" y="554" type="line" smooth="yes"/>
      <point x="1373" y="693"/>
      <point x="1338" y="761"/>
      <point x="1255" y="761" type="curve" smooth="yes"/>
      <point x="1147" y="761"/>
      <point x="1099" y="672"/>
      <point x="1099" y="475" type="curve" smooth="yes"/>
      <point x="1099" y="0" type="line"/>
      <point x="746" y="0" type="line"/>
      <point x="746" y="554" type="line" smooth="yes"/>
      <point x="746" y="693"/>
      <point x="712" y="761"/>
      <point x="632" y="761" type="curve" smooth="yes"/>
      <point x="521" y="761"/>
      <point x="473" y="670"/>
      <point x="473" y="446" type="curve" smooth="yes"/>
      <point x="473" y="0" type="line"/>
      <point x="121" y="0" type="line"/>
      <point x="121" y="1020" type="line"/>
      <point x="387" y="1020" type="line"/>
      <point x="431" y="894" type="line"/>
      <point x="452" y="894" type="line"/>
      <point x="505" y="987"/>
      <point x="613" y="1038"/>
      <point x="744" y="1038" type="curve" smooth="yes"/>
      <point x="891" y="1038"/>
      <point x="995" y="993"/>
      <point x="1054" y="904" type="curve"/>
      <point x="1082" y="904" type="line"/>
      <point x="1139" y="988"/>
      <point x="1248" y="1038"/>
      <point x="1372" y="1038" type="curve" smooth="yes"/>
      <point x="1612" y="1038"/>
      <point x="1725" y="915"/>
      <point x="1725" y="663" type="curve" smooth="yes"/>
      <point x="1725" y="0" type="line"/>
    </contour>
  </outline>
</glyph>
<glyph name="y" format="1">
  <advance width="1124"/>
  <unicode hex="0079"/>
  <outline>
    <contour>
      <point x="-2" y="1020" type="line"/>
      <point x="369" y="1020" type="line"/>
      <point x="542" y="435" type="line"/>
      <point x="550" y="404"/>
      <point x="556" y="367"/>
      <point x="559" y="324" type="curve"/>
      <point x="566" y="324" type="line"/>
      <point x="571" y="365"/>
      <point x="578" y="402"/>
      <point x="588" y="433" type="curve" smooth="yes"/>
      <point x="765" y="1020" type="line"/>
      <point x="1124" y="1020" type="line"/>
      <point x="721" y="-65" type="line" smooth="yes"/>
      <point x="669" y="-203"/>
      <point x="605" y="-300"/>
      <point x="530" y="-357" type="curve" smooth="yes"/>
      <point x="455" y="-414"/>
      <point x="357" y="-443"/>
      <point x="236" y="-443" type="curve" smooth="yes"/>
      <point x="189" y="-443"/>
      <point x="141" y="-438"/>
      <point x="92" y="-428" type="curve"/>
      <point x="92" y="-151" type="line"/>
      <point x="123" y="-158"/>
      <point x="160" y="-162"/>
      <point x="201" y="-162" type="curve" smooth="yes"/>
      <point x="232" y="-162"/>
      <point x="259" y="-156"/>
      <point x="282" y="-144" type="curve" smooth="yes"/>
      <point x="306" y="-132"/>
      <point x="327" y="-115"/>
      <point x="344" y="-93" type="curve" smooth="yes"/>
      <point x="361" y="-71"/>
      <point x="380" y="-35"/>
      <point x="400" y="14" type="curve"/>
    </contour>
  </outline>
</glyph>
<glyph name="divide.deva" format="1">
  <advance width="1043"/>
  <unicode hex="00F7"/>
  <outline>
    <contour>
      <point x="65" y="529" type="line"/>
      <point x="65" y="770" type="line"/>
      <point x="976" y="770" type="line"/>
      <point x="976" y="529" type="line"/>
    </contour>
    <contour>
      <point x="380" y="299" type="curve" smooth="yes"/>
      <point x="380" y="398"/>
      <point x="428" y="452"/>
      <point x="520" y="452" type="curve" smooth="yes"/>
      <point x="611" y="452"/>
      <point x="661" y="398"/>
      <point x="661" y="299" type="curve" smooth="yes"/>
      <point x="661" y="203"/>
      <point x="604" y="146"/>
      <point x="520" y="146" type="curve" smooth="yes"/>
      <point x="435" y="146"/>
      <point x="380" y="200"/>
    </contour>
    <contour>
      <point x="380" y="1001" type="curve" smooth="yes"/>
      <point x="380" y="1100"/>
      <point x="428" y="1154"/>
      <point x="520" y="1154" type="curve" smooth="yes"/>
      <point x="611" y="1154"/>
      <point x="661" y="1100"/>
      <point x="661" y="1001" type="curve" smooth="yes"/>
      <point x="661" y="905"/>
      <point x="604" y="848"/>
      <point x="520" y="848" type="curve" smooth="yes"/>
      <point x="435" y="848"/>
      <point x="380" y="902"/>
    </contour>
  </outline>
</glyph>
<glyph name="uni02BC" format="1">
  <advance width="825"/>
  <unicode hex="02BC"/>
  <outline>
    <contour>
      <point x="0" y="0" type="line"/>
      <point x="825" y="0" type="line"/>
      <point x="825" y="20" type="line"/>
      <point x="0" y="20" type="line"/>
    </contour>
  </outline>
</glyph>
<glyph name="lvocalicdeva" format="1">
  <advance width="1625"/>
  <unicode hex="090C"/>
  <outline>
    <contour>
      <point x="1016" y="629" type="curve"/>
      <point x="812" y="468" type="line"/>
      <point x="724" y="595"/>
      <point x="652" y="642"/>
      <point x="550" y="642" type="curve" smooth="yes"/>
      <point x="459" y="642"/>
      <point x="405" y="572"/>
      <point x="405" y="486" type="curve" smooth="yes"/>
      <point x="405" y="383"/>
      <point x="463" y="295"/>
      <point x="600" y="167" type="curve"/>
      <point x="363" y="38" type="line"/>
      <point x="184" y="196"/>
      <point x="75" y="386"/>
      <point x="75" y="566" type="curve" smooth="yes"/>
      <point x="75" y="773"/>
      <point x="206" y="931"/>
      <point x="456" y="931" type="curve" smooth="yes"/>
      <point x="673" y="931"/>
      <point x="850" y="820"/>
    </contour>
    <contour>
      <point x="1648" y="1065" type="line"/>
      <point x="-20" y="1065" type="line"/>
      <point x="-20" y="1293" type="line"/>
      <point x="1648" y="1293" type="line"/>
    </contour>
    <contour>
      <point x="977" y="1104" type="line"/>
      <point x="1326" y="1104" type="line"/>
      <point x="1326" y="810" type="line"/>
      <point x="977" y="810" type="line"/>
    </contour>
    <contour>
      <point x="1288" y="388" type="curve"/>
      <point x="1169" y="282" type="line"/>
      <point x="1213" y="345"/>
      <point x="1234" y="448"/>
      <point x="1234" y="513" type="curve" smooth="yes"/>
      <point x="1234" y="570"/>
      <point x="1197" y="601"/>
      <point x="1130" y="601" type="curve" smooth="yes"/>
      <point x="1043" y="601"/>
      <point x="955" y="510"/>
      <point x="907" y="294" type="curve"/>
      <point x="610" y="398" type="line"/>
      <point x="674" y="668"/>
      <point x="806" y="886"/>
      <point x="1107" y="889" type="curve" smooth="yes"/>
      <point x="1353" y="892"/>
      <point x="1537" y="708"/>
      <point x="1537" y="487" type="curve" smooth="yes"/>
      <point x="1537" y="403"/>
      <point x="1521" y="307"/>
      <point x="1484" y="218" type="curve"/>
      <point x="1337" y="217"/>
      <point x="1280" y="164"/>
      <point x="1280" y="113" type="curve" smooth="yes"/>
      <point x="1280" y="62"/>
      <point x="1309" y="32"/>
      <point x="1388" y="32" type="curve" smooth="yes"/>
      <point x="1445" y="32"/>
      <point x="1494" y="48"/>
      <point x="1571" y="81" type="curve"/>
      <point x="1607" y="-139" type="line"/>
      <point x="1519" y="-171"/>
      <point x="1453" y="-178"/>
      <point x="1369" y="-178" type="curve" smooth="yes"/>
      <point x="1142" y="-178"/>
      <point x="985" y="-51"/>
      <point x="985" y="100" type="curve" smooth="yes"/>
      <point x="985" y="245"/>
      <point x="1097" y="357"/>
    </contour>
    <contour>
      <point x="1102" y="1280" type="move" name="mark0"/>
    </contour>
  </outline>
</glyph>
<glyph name="ddadeva" format="1">
  <advance width="1241"/>
  <unicode hex="0921"/>
  <outline>
    <contour>
      <point x="699" y="1086" type="line"/>
      <point x="1028" y="1086" type="line"/>
      <point x="1028" y="723" type="line"/>
      <point x="552" y="723" type="line"/>
      <point x="474" y="723"/>
      <point x="445" y="690"/>
      <point x="445" y="652" type="curve" smooth="yes"/>
      <point x="445" y="615"/>
      <point x="473" y="592"/>
      <point x="544" y="558" type="curve"/>
      <point x="442" y="574" type="line"/>
      <point x="551" y="620"/>
      <point x="620" y="635"/>
      <point x="748" y="635" type="curve" smooth="yes"/>
      <point x="1019" y="635"/>
      <point x="1145" y="491"/>
      <point x="1145" y="321" type="curve" smooth="yes"/>
      <point x="1145" y="154"/>
      <point x="1005" y="-8"/>
      <point x="648" y="-8" type="curve" smooth="yes"/>
      <point x="433" y="-8"/>
      <point x="278" y="51"/>
      <point x="75" y="156" type="curve"/>
      <point x="132" y="398" type="line"/>
      <point x="329" y="287"/>
      <point x="500" y="229"/>
      <point x="624" y="229" type="curve" smooth="yes"/>
      <point x="760" y="229"/>
      <point x="825" y="279"/>
      <point x="825" y="323" type="curve" smooth="yes"/>
      <point x="825" y="360"/>
      <point x="790" y="382"/>
      <point x="723" y="382" type="curve" smooth="yes"/>
      <point x="636" y="382"/>
      <point x="576" y="368"/>
      <point x="497" y="337" type="curve"/>
      <point x="473" y="336" type="line"/>
      <point x="226" y="439"/>
      <point x="127" y="570"/>
      <point x="127" y="711" type="curve" smooth="yes"/>
      <point x="127" y="832"/>
      <point x="219" y="946"/>
      <point x="461" y="946" type="curve" smooth="yes"/>
      <point x="766" y="946" type="line"/>
      <point x="699" y="880" type="line"/>
    </contour>
    <contour>
      <point x="1276" y="1065" type="line"/>
      <point x="-39" y="1065" type="line"/>
      <point x="-39" y="1293" type="line"/>
      <point x="1276" y="1293" type="line"/>
    </contour>
    <contour>
      <point x="1244" y="8" type="move" name="x45"/>
    </contour>
    <contour>
      <point x="-275" y="8" type="move" name="x44"/>
    </contour>
    <contour>
      <point x="530" y="8" type="move" name="mark0"/>
    </contour>
  </outline>
</glyph>
<glyph name="tadeva" format="1">
  <advance width="1315"/>
  <unicode hex="0924"/>
  <outline>
    <contour>
      <point x="845" y="915" type="line"/>
      <point x="845" y="618" type="line"/>
      <point x="642" y="618" type="line"/>
      <point x="486" y="618"/>
      <point x="401" y="528"/>
      <point x="401" y="409" type="curve" smooth="yes"/>
      <point x="401" y="318"/>
      <point x="435" y="211"/>
      <point x="542" y="38" type="curve"/>
      <point x="261" y="-32" type="line"/>
      <point x="150" y="134"/>
      <point x="75" y="326"/>
      <point x="75" y="505" type="curve" smooth="yes"/>
      <point x="75" y="738"/>
      <point x="246" y="915"/>
      <point x="576" y="915" type="curve" smooth="yes"/>
    </contour>
    <contour>
      <point x="-16" y="1065" type="line"/>
      <point x="-16" y="1293" type="line"/>
      <point x="1340" y="1293" type="line"/>
      <point x="1340" y="1065" type="line"/>
    </contour>
    <contour>
      <point x="778" y="1104" type="line"/>
      <point x="1127" y="1104" type="line"/>
      <point x="1127" y="0" type="line"/>
      <point x="778" y="0" type="line"/>
    </contour>
  </outline>
</glyph>
<glyph name="thadeva" format="1">
  <advance width="1503"/>
  <unicode hex="0925"/>
  <outline>
    <contour>
      <point x="801" y="893" type="curve" smooth="yes"/>
      <point x="801" y="719"/>
      <point x="628" y="530"/>
      <point x="416" y="467" type="curve"/>
      <point x="416" y="556" type="line"/>
      <point x="482" y="481"/>
      <point x="567" y="446"/>
      <point x="676" y="446" type="curve" smooth="yes"/>
      <point x="820" y="446"/>
      <point x="942" y="512"/>
      <point x="1021" y="682" type="curve"/>
      <point x="1021" y="204" type="line"/>
      <point x="955" y="179"/>
      <point x="890" y="168"/>
      <point x="783" y="168" type="curve" smooth="yes"/>
      <point x="495" y="168"/>
      <point x="211" y="311"/>
      <point x="83" y="613" type="curve"/>
      <point x="83" y="618" type="line"/>
      <point x="296" y="687"/>
      <point x="503" y="828"/>
      <point x="503" y="966" type="curve" smooth="yes"/>
      <point x="503" y="1052"/>
      <point x="450" y="1105"/>
      <point x="388" y="1105" type="curve" smooth="yes"/>
      <point x="347" y="1105"/>
      <point x="316" y="1067"/>
      <point x="318" y="1023" type="curve" smooth="yes"/>
      <point x="321" y="959"/>
      <point x="375" y="904"/>
      <point x="490" y="852" type="curve"/>
      <point x="391" y="699" type="line"/>
      <point x="113" y="785"/>
      <point x="12" y="940"/>
      <point x="12" y="1096" type="curve" smooth="yes"/>
      <point x="12" y="1220"/>
      <point x="92" y="1341"/>
      <point x="322" y="1341" type="curve" smooth="yes"/>
      <point x="653" y="1341"/>
      <point x="801" y="1104"/>
    </contour>
    <contour>
      <point x="966" y="1104" type="line"/>
      <point x="1314" y="1104" type="line"/>
      <point x="1314" y="0" type="line"/>
      <point x="966" y="0" type="line"/>
    </contour>
    <contour>
      <point x="1527" y="1065" type="line"/>
      <point x="853" y="1065" type="line"/>
      <point x="853" y="1293" type="line"/>
      <point x="1527" y="1293" type="line"/>
    </contour>
  </outline>
</glyph>
<glyph name="padeva" format="1">
  <advance width="1307"/>
  <unicode hex="092A"/>
  <outline>
    <contour>
      <point x="1333" y="1065" type="line"/>
      <point x="-48" y="1065" type="line"/>
      <point x="-48" y="1293" type="line"/>
      <point x="1333" y="1293" type="line"/>
    </contour>
    <contour>
      <point x="462" y="1171" type="line"/>
      <point x="462" y="677" type="line"/>
      <point x="462" y="588"/>
      <point x="501" y="540"/>
      <point x="575" y="540" type="curve" smooth="yes"/>
      <point x="661" y="540"/>
      <point x="722" y="573"/>
      <point x="796" y="640" type="curve"/>
      <point x="796" y="294" type="line"/>
      <point x="747" y="280"/>
      <point x="693" y="273"/>
      <point x="633" y="273" type="curve" smooth="yes"/>
      <point x="323" y="273"/>
      <point x="113" y="464"/>
      <point x="113" y="756" type="curve" smooth="yes"/>
      <point x="113" y="1171" type="line"/>
    </contour>
    <contour>
      <point x="770" y="1104" type="line"/>
      <point x="1119" y="1104" type="line"/>
      <point x="1119" y="0" type="line"/>
      <point x="770" y="0" type="line"/>
    </contour>
  </outline>
</glyph>
<glyph name="sadeva" format="1">
  <advance width="1614"/>
  <unicode hex="0938"/>
  <outline>
    <contour>
      <point x="837" y="94" type="line"/>
      <point x="599" y="-62" type="line"/>
      <point x="149" y="517" type="line"/>
      <point x="64" y="625"/>
      <point x="36" y="679"/>
      <point x="36" y="743" type="curve" smooth="yes"/>
      <point x="36" y="817"/>
      <point x="103" y="878"/>
      <point x="182" y="878" type="curve" smooth="yes"/>
      <point x="259" y="878"/>
      <point x="306" y="842"/>
      <point x="389" y="729" type="curve" smooth="yes"/>
      <point x="436" y="665" type="line"/>
      <point x="420" y="645" type="line"/>
    </contour>
    <contour>
      <point x="270" y="718" type="line"/>
      <point x="397" y="762"/>
      <point x="446" y="823"/>
      <point x="446" y="955" type="curve" smooth="yes"/>
      <point x="446" y="1123" type="line"/>
      <point x="794" y="1123" type="line"/>
      <point x="794" y="901" type="line"/>
      <point x="794" y="710"/>
      <point x="676" y="552"/>
      <point x="454" y="449" type="curve"/>
    </contour>
    <contour>
      <point x="-33" y="1065" type="line"/>
      <point x="-33" y="1293" type="line"/>
      <point x="1640" y="1293" type="line"/>
      <point x="1640" y="1065" type="line"/>
    </contour>
    <contour>
      <point x="525" y="508" type="curve"/>
      <point x="658" y="740" type="line"/>
      <point x="726" y="717"/>
      <point x="808" y="705"/>
      <point x="867" y="705" type="curve" smooth="yes"/>
      <point x="952" y="705"/>
      <point x="1016" y="709"/>
      <point x="1104" y="731" type="curve"/>
      <point x="1104" y="437" type="line"/>
      <point x="1043" y="426"/>
      <point x="989" y="421"/>
      <point x="912" y="421" type="curve" smooth="yes"/>
      <point x="808" y="421"/>
      <point x="659" y="453"/>
    </contour>
    <contour>
      <point x="1078" y="1104" type="line"/>
      <point x="1426" y="1104" type="line"/>
      <point x="1426" y="0" type="line"/>
      <point x="1078" y="0" type="line"/>
    </contour>
  </outline>
</glyph>
<glyph name="avagrahadeva" format="1">
  <advance width="1200"/>
  <unicode hex="093D"/>
  <outline>
    <contour>
      <point x="1056" y="362" type="curve" smooth="yes"/>
      <point x="1056" y="139"/>
      <point x="875" y="6"/>
      <point x="631" y="6" type="curve" smooth="yes"/>
      <point x="448" y="6"/>
      <point x="262" y="70"/>
      <point x="78" y="187" type="curve"/>
      <point x="146" y="445" type="line"/>
      <point x="311" y="336"/>
      <point x="437" y="289"/>
      <point x="525" y="289" type="curve" smooth="yes"/>
      <point x="632" y="289"/>
      <point x="700" y="335"/>
      <point x="700" y="414" type="curve" smooth="yes"/>
      <point x="700" y="487"/>
      <point x="643" y="550"/>
      <point x="469" y="655" type="curve" smooth="yes"/>
      <point x="292" y="761"/>
      <point x="185" y="856"/>
      <point x="185" y="1024" type="curve" smooth="yes"/>
      <point x="185" y="1173"/>
      <point x="305" y="1293"/>
      <point x="548" y="1293" type="curve" smooth="yes"/>
      <point x="1012" y="1293" type="line"/>
      <point x="1012" y="1065" type="line"/>
      <point x="692" y="1065" type="line"/>
      <point x="626" y="1065"/>
      <point x="577" y="1030"/>
      <point x="576" y="977" type="curve" smooth="yes"/>
      <point x="575" y="930"/>
      <point x="619" y="890"/>
      <point x="755" y="804" type="curve" smooth="yes"/>
      <point x="967" y="669"/>
      <point x="1056" y="545"/>
    </contour>
  </outline>
</glyph>
<glyph name="aivowelsigndeva" format="1">
  <advance width="0"/>
  <unicode hex="0948"/>
  <outline>
    <contour>
      <point x="-855" y="1244" type="line"/>
      <point x="-1266" y="1553" type="line"/>
      <point x="-1013" y="1750" type="line"/>
      <point x="-439" y="1244" type="line"/>
    </contour>
    <contour>
      <point x="-484" y="1244" type="line"/>
      <point x="-708" y="1760" type="line"/>
      <point x="-394" y="1835" type="line"/>
      <point x="-178" y="1244" type="line"/>
    </contour>
    <contour>
      <point x="49" y="8" type="move" name="x27"/>
    </contour>
    <contour>
      <point x="-424" y="1282" type="move" name="_mark0"/>
    </contour>
  </outline>
</glyph>
<glyph name="fadeva" format="1">
  <advance width="1737"/>
  <unicode hex="095E"/>
  <outline>
    <component base="phadeva"/>
    <component base="nuktadeva" xOffset="1216" yOffset="266"/>
    <contour>
      <point x="911" y="0" type="move" name="mark0"/>
    </contour>
  </outline>
</glyph>
<glyph name="llvocalicvowelsigndeva" format="1">
  <advance width="-2"/>
  <unicode hex="0963"/>
  <outline>
    <contour>
      <point x="-347" y="-240" type="curve"/>
      <point x="-464" y="-328" type="line"/>
      <point x="-514" y="-259"/>
      <point x="-554" y="-233"/>
      <point x="-612" y="-233" type="curve" smooth="yes"/>
      <point x="-663" y="-233"/>
      <point x="-693" y="-270"/>
      <point x="-693" y="-318" type="curve" smooth="yes"/>
      <point x="-693" y="-373"/>
      <point x="-661" y="-420"/>
      <point x="-584" y="-490" type="curve"/>
      <point x="-718" y="-561" type="line"/>
      <point x="-820" y="-475"/>
      <point x="-881" y="-372"/>
      <point x="-881" y="-274" type="curve" smooth="yes"/>
      <point x="-881" y="-160"/>
      <point x="-808" y="-75"/>
      <point x="-665" y="-75" type="curve" smooth="yes"/>
      <point x="-543" y="-75"/>
      <point x="-442" y="-135"/>
    </contour>
    <contour>
      <point x="49" y="-808" type="line"/>
      <point x="10" y="-821"/>
      <point x="-48" y="-832"/>
      <point x="-96" y="-832" type="curve" smooth="yes"/>
      <point x="-235" y="-832"/>
      <point x="-287" y="-765"/>
      <point x="-287" y="-700" type="curve" smooth="yes"/>
      <point x="-287" y="-618"/>
      <point x="-197" y="-561"/>
      <point x="-63" y="-561" type="curve"/>
      <point x="-34" y="-632" type="line"/>
      <point x="-98" y="-632"/>
      <point x="-133" y="-662"/>
      <point x="-133" y="-691" type="curve" smooth="yes"/>
      <point x="-133" y="-715"/>
      <point x="-119" y="-734"/>
      <point x="-75" y="-734" type="curve" smooth="yes"/>
      <point x="-43" y="-734"/>
      <point x="-18" y="-727"/>
      <point x="29" y="-712" type="curve"/>
    </contour>
    <contour>
      <point x="-179" y="-363" type="curve"/>
      <point x="-261" y="-428" type="line"/>
      <point x="-236" y="-394"/>
      <point x="-225" y="-337"/>
      <point x="-225" y="-303" type="curve" smooth="yes"/>
      <point x="-225" y="-271"/>
      <point x="-245" y="-256"/>
      <point x="-283" y="-256" type="curve" smooth="yes"/>
      <point x="-332" y="-256"/>
      <point x="-382" y="-305"/>
      <point x="-409" y="-422" type="curve"/>
      <point x="-579" y="-364" type="line"/>
      <point x="-543" y="-219"/>
      <point x="-468" y="-99"/>
      <point x="-296" y="-98" type="curve" smooth="yes"/>
      <point x="-157" y="-96"/>
      <point x="-52" y="-196"/>
      <point x="-52" y="-316" type="curve" smooth="yes"/>
      <point x="-52" y="-362"/>
      <point x="-61" y="-415"/>
      <point x="-81" y="-464" type="curve"/>
      <point x="-87" y="-464"/>
      <point x="-95" y="-464"/>
      <point x="-99" y="-464" type="curve" smooth="yes"/>
      <point x="-160" y="-464"/>
      <point x="-183" y="-489"/>
      <point x="-183" y="-510" type="curve" smooth="yes"/>
      <point x="-183" y="-532"/>
      <point x="-165" y="-551"/>
      <point x="-125" y="-551" type="curve" smooth="yes"/>
      <point x="-94" y="-551"/>
      <point x="-71" y="-548"/>
      <point x="-17" y="-533" type="curve"/>
      <point x="6" y="-639" type="line"/>
      <point x="-50" y="-651"/>
      <point x="-83" y="-654"/>
      <point x="-130" y="-654" type="curve" smooth="yes"/>
      <point x="-275" y="-654"/>
      <point x="-359" y="-587"/>
      <point x="-359" y="-501" type="curve" smooth="yes"/>
      <point x="-359" y="-431"/>
      <point x="-291" y="-377"/>
    </contour>
    <contour>
      <point x="-419" y="6" type="move" name="_mark0"/>
    </contour>
  </outline>
</glyph>
<glyph name="uni0971" format="1">
  <advance width="810"/>
  <unicode hex="0971"/>
  <outline>
    <contour>
      <point x="0" y="0" type="line"/>
      <point x="810" y="0" type="line"/>
      <point x="810" y="20" type="line"/>
      <point x="0" y="20" type="line"/>
    </contour>
  </outline>
</glyph>
<glyph name="uni097D" format="1">
  <advance width="1123"/>
  <unicode hex="097D"/>
  <outline>
    <contour>
      <point x="654" y="521" type="line"/>
      <point x="654" y="0" type="line"/>
      <point x="306" y="0" type="line"/>
      <point x="306" y="692" type="line"/>
      <point x="318" y="693" type="line"/>
      <point x="592" y="713"/>
      <point x="679" y="833"/>
      <point x="679" y="920" type="curve" smooth="yes"/>
      <point x="679" y="996"/>
      <point x="626" y="1049"/>
      <point x="537" y="1049" type="curve" smooth="yes"/>
      <point x="450" y="1049"/>
      <point x="363" y="1022"/>
      <point x="242" y="962" type="curve"/>
      <point x="165" y="1223" type="line"/>
      <point x="289" y="1277"/>
      <point x="405" y="1302"/>
      <point x="550" y="1302" type="curve" smooth="yes"/>
      <point x="830" y="1302"/>
      <point x="991" y="1123"/>
      <point x="991" y="889" type="curve" smooth="yes"/>
      <point x="991" y="668"/>
      <point x="796" y="506"/>
      <point x="616" y="480" type="curve"/>
    </contour>
  </outline>
</glyph>
<glyph name="uni200D" format="1">
  <advance width="93"/>
  <unicode hex="200D"/>
  <outline>
    <contour>
      <point x="0" y="0" type="line"/>
      <point x="93" y="0" type="line"/>
      <point x="93" y="20" type="line"/>
      <point x="0" y="20" type="line"/>
    </contour>
  </outline>
</glyph>
<glyph name="ellipsis.deva" format="1">
  <advance width="1598"/>
  <unicode hex="2026"/>
  <outline>
    <contour>
      <point x="77" y="149" type="curve" smooth="yes"/>
      <point x="77" y="260"/>
      <point x="144" y="322"/>
      <point x="269" y="322" type="curve" smooth="yes"/>
      <point x="388" y="322"/>
      <point x="454" y="260"/>
      <point x="454" y="149" type="curve" smooth="yes"/>
      <point x="454" y="41"/>
      <point x="384" y="-23"/>
      <point x="269" y="-23" type="curve" smooth="yes"/>
      <point x="150" y="-23"/>
      <point x="77" y="40"/>
    </contour>
    <contour>
      <point x="610" y="149" type="curve" smooth="yes"/>
      <point x="610" y="260"/>
      <point x="677" y="322"/>
      <point x="802" y="322" type="curve" smooth="yes"/>
      <point x="921" y="322"/>
      <point x="986" y="260"/>
      <point x="986" y="149" type="curve" smooth="yes"/>
      <point x="986" y="41"/>
      <point x="917" y="-23"/>
      <point x="802" y="-23" type="curve" smooth="yes"/>
      <point x="683" y="-23"/>
      <point x="610" y="40"/>
    </contour>
    <contour>
      <point x="1143" y="149" type="curve" smooth="yes"/>
      <point x="1143" y="260"/>
      <point x="1210" y="322"/>
      <point x="1335" y="322" type="curve" smooth="yes"/>
      <point x="1454" y="322"/>
      <point x="1519" y="260"/>
      <point x="1519" y="149" type="curve" smooth="yes"/>
      <point x="1519" y="41"/>
      <point x="1450" y="-23"/>
      <point x="1335" y="-23" type="curve" smooth="yes"/>
      <point x="1216" y="-23"/>
      <point x="1143" y="40"/>
    </contour>
  </outline>
</glyph>
<glyph name="bhaprehalfdeva" format="1">
  <advance width="874"/>
  <outline>
    <contour>
      <point x="324" y="995" type="line"/>
      <point x="324" y="1082"/>
      <point x="284" y="1141"/>
      <point x="229" y="1141" type="curve" smooth="yes"/>
      <point x="177" y="1141"/>
      <point x="153" y="1107"/>
      <point x="153" y="1060" type="curve" smooth="yes"/>
      <point x="153" y="994"/>
      <point x="213" y="938"/>
      <point x="381" y="932" type="curve"/>
      <point x="367" y="755" type="line"/>
      <point x="76" y="756"/>
      <point x="-148" y="885"/>
      <point x="-148" y="1123" type="curve" smooth="yes"/>
      <point x="-148" y="1255"/>
      <point x="-47" y="1379"/>
      <point x="202" y="1379" type="curve" smooth="yes"/>
      <point x="492" y="1379"/>
      <point x="672" y="1206"/>
      <point x="672" y="949" type="curve" smooth="yes"/>
      <point x="672" y="649" type="line"/>
      <point x="639" y="692" type="line"/>
      <point x="1178" y="692" type="line"/>
      <point x="1178" y="422" type="line"/>
      <point x="622" y="422" type="line"/>
      <point x="672" y="472" type="line"/>
      <point x="672" y="328" type="line"/>
      <point x="672" y="239"/>
      <point x="638" y="186"/>
      <point x="550" y="186" type="curve" smooth="yes"/>
      <point x="371" y="186"/>
      <point x="158" y="412"/>
      <point x="158" y="557" type="curve" smooth="yes"/>
      <point x="158" y="649"/>
      <point x="206" y="691"/>
      <point x="276" y="691" type="curve" smooth="yes"/>
      <point x="360" y="691" type="line"/>
      <point x="324" y="662" type="line"/>
    </contour>
  </outline>
</glyph>
<glyph name="caprehalfdeva" format="1">
  <advance width="847"/>
  <outline>
    <contour>
      <point x="23" y="633" type="line"/>
      <point x="23" y="896" type="line"/>
      <point x="774" y="896" type="line"/>
      <point x="774" y="633" type="line"/>
    </contour>
    <contour>
      <point x="1031" y="676" type="curve"/>
      <point x="1258" y="443" type="line"/>
      <point x="1112" y="257"/>
      <point x="955" y="132"/>
      <point x="695" y="132" type="curve" smooth="yes"/>
      <point x="386" y="132"/>
      <point x="228" y="325"/>
      <point x="228" y="532" type="curve" smooth="yes"/>
      <point x="228" y="722"/>
      <point x="359" y="883"/>
      <point x="682" y="883" type="curve"/>
      <point x="713" y="636" type="line"/>
      <point x="600" y="638"/>
      <point x="546" y="561"/>
      <point x="546" y="495" type="curve" smooth="yes"/>
      <point x="546" y="440"/>
      <point x="599" y="402"/>
      <point x="656" y="402" type="curve" smooth="yes"/>
      <point x="770" y="402"/>
      <point x="910" y="485"/>
    </contour>
    <contour>
      <point x="-21" y="1065" type="line"/>
      <point x="-21" y="1293" type="line"/>
      <point x="1157" y="1293" type="line"/>
      <point x="1157" y="1065" type="line"/>
    </contour>
  </outline>
</glyph>
<glyph name="dabhaaltdeva" format="1">
  <advance width="2051"/>
  <outline>
    <contour>
      <point x="0" y="0" type="line"/>
      <point x="2051" y="0" type="line"/>
      <point x="2051" y="20" type="line"/>
      <point x="0" y="20" type="line"/>
    </contour>
  </outline>
</glyph>
<glyph name="dadadeva" format="1">
  <advance width="1215"/>
  <outline>
    <contour>
      <point x="819" y="-107" type="line"/>
      <point x="1074" y="-30" type="line"/>
      <point x="1280" y="-414" type="line"/>
      <point x="1028" y="-493" type="line"/>
    </contour>
    <contour>
      <point x="1274" y="1065" type="line"/>
      <point x="-41" y="1065" type="line"/>
      <point x="-41" y="1293" type="line"/>
      <point x="1274" y="1293" type="line"/>
    </contour>
    <contour>
      <point x="532" y="181" type="curve" smooth="yes"/>
      <point x="532" y="70"/>
      <point x="629" y="5"/>
      <point x="749" y="5" type="curve" smooth="yes"/>
      <point x="793" y="5"/>
      <point x="848" y="12"/>
      <point x="922" y="35" type="curve"/>
      <point x="803" y="-68" type="line"/>
      <point x="767" y="-14"/>
      <point x="750" y="48"/>
      <point x="750" y="93" type="curve" smooth="yes"/>
      <point x="750" y="159"/>
      <point x="801" y="236"/>
      <point x="936" y="236" type="curve" smooth="yes"/>
      <point x="1122" y="236"/>
      <point x="1261" y="135"/>
      <point x="1261" y="30" type="curve" smooth="yes"/>
      <point x="1261" y="-85"/>
      <point x="1092" y="-219"/>
      <point x="788" y="-219" type="curve" smooth="yes"/>
      <point x="439" y="-219"/>
      <point x="206" y="-29"/>
      <point x="206" y="230" type="curve" smooth="yes"/>
      <point x="206" y="482"/>
      <point x="452" y="598"/>
      <point x="737" y="596" type="curve" smooth="yes"/>
      <point x="857" y="595"/>
      <point x="953" y="580"/>
      <point x="1072" y="546" type="curve"/>
      <point x="1033" y="333" type="line"/>
      <point x="938" y="351"/>
      <point x="883" y="355"/>
      <point x="792" y="355" type="curve" smooth="yes"/>
      <point x="619" y="355"/>
      <point x="532" y="283"/>
    </contour>
    <contour>
      <point x="544" y="546" type="curve"/>
      <point x="384" y="371" type="line"/>
      <point x="195" y="467"/>
      <point x="124" y="585"/>
      <point x="124" y="711" type="curve" smooth="yes"/>
      <point x="124" y="832"/>
      <point x="217" y="946"/>
      <point x="459" y="946" type="curve" smooth="yes"/>
      <point x="764" y="946" type="line"/>
      <point x="697" y="880" type="line"/>
      <point x="697" y="1086" type="line"/>
      <point x="1026" y="1086" type="line"/>
      <point x="1026" y="723" type="line"/>
      <point x="550" y="723" type="line"/>
      <point x="472" y="723"/>
      <point x="443" y="689"/>
      <point x="443" y="652" type="curve" smooth="yes"/>
      <point x="443" y="615"/>
      <point x="471" y="581"/>
    </contour>
    <contour>
      <point x="961" y="6" type="move" name="mark0"/>
    </contour>
  </outline>
</glyph>
<glyph name="ddhaddhadeva" format="1">
  <advance width="1236"/>
  <outline>
    <contour>
      <point x="623" y="195" type="line"/>
      <point x="929" y="195" type="line"/>
      <point x="929" y="-172" type="line"/>
      <point x="614" y="-172" type="line"/>
      <point x="404" y="-172"/>
      <point x="329" y="-266"/>
      <point x="329" y="-371" type="curve" smooth="yes"/>
      <point x="329" y="-484"/>
      <point x="465" y="-576"/>
      <point x="662" y="-576" type="curve" smooth="yes"/>
      <point x="791" y="-576"/>
      <point x="862" y="-528"/>
      <point x="862" y="-473" type="curve" smooth="yes"/>
      <point x="862" y="-435"/>
      <point x="832" y="-418"/>
      <point x="796" y="-418" type="curve" smooth="yes"/>
      <point x="724" y="-418"/>
      <point x="666" y="-470"/>
      <point x="666" y="-533" type="curve" smooth="yes"/>
      <point x="666" y="-571"/>
      <point x="681" y="-609"/>
      <point x="694" y="-642" type="curve"/>
      <point x="464" y="-667" type="line"/>
      <point x="426" y="-611"/>
      <point x="415" y="-567"/>
      <point x="415" y="-503" type="curve" smooth="yes"/>
      <point x="415" y="-371"/>
      <point x="537" y="-245"/>
      <point x="776" y="-245" type="curve" smooth="yes"/>
      <point x="996" y="-245"/>
      <point x="1121" y="-337"/>
      <point x="1121" y="-482" type="curve" smooth="yes"/>
      <point x="1121" y="-611"/>
      <point x="990" y="-743"/>
      <point x="667" y="-743" type="curve" smooth="yes"/>
      <point x="262" y="-743"/>
      <point x="33" y="-517"/>
      <point x="33" y="-313" type="curve" smooth="yes"/>
      <point x="33" y="-125"/>
      <point x="157" y="27"/>
      <point x="515" y="27" type="curve" smooth="yes"/>
      <point x="660" y="27" type="line"/>
      <point x="623" y="-3" type="line"/>
    </contour>
    <contour>
      <point x="680" y="1104" type="line"/>
      <point x="995" y="1104" type="line"/>
      <point x="995" y="721" type="line"/>
      <point x="671" y="721" type="line"/>
      <point x="456" y="721"/>
      <point x="379" y="622"/>
      <point x="379" y="513" type="curve" smooth="yes"/>
      <point x="379" y="396"/>
      <point x="517" y="302"/>
      <point x="723" y="302" type="curve" smooth="yes"/>
      <point x="854" y="302"/>
      <point x="927" y="353"/>
      <point x="927" y="407" type="curve" smooth="yes"/>
      <point x="927" y="448"/>
      <point x="896" y="466"/>
      <point x="860" y="466" type="curve" smooth="yes"/>
      <point x="784" y="466"/>
      <point x="726" y="410"/>
      <point x="726" y="347" type="curve" smooth="yes"/>
      <point x="726" y="307"/>
      <point x="742" y="268"/>
      <point x="754" y="234" type="curve"/>
      <point x="519" y="207" type="line"/>
      <point x="478" y="266"/>
      <point x="468" y="312"/>
      <point x="468" y="378" type="curve" smooth="yes"/>
      <point x="468" y="513"/>
      <point x="592" y="643"/>
      <point x="839" y="643" type="curve" smooth="yes"/>
      <point x="1065" y="643"/>
      <point x="1193" y="550"/>
      <point x="1193" y="397" type="curve" smooth="yes"/>
      <point x="1193" y="267"/>
      <point x="1059" y="130"/>
      <point x="727" y="130" type="curve" smooth="yes"/>
      <point x="311" y="130"/>
      <point x="74" y="363"/>
      <point x="74" y="574" type="curve" smooth="yes"/>
      <point x="74" y="770"/>
      <point x="203" y="925"/>
      <point x="568" y="925" type="curve" smooth="yes"/>
      <point x="720" y="925" type="line"/>
      <point x="680" y="894" type="line"/>
    </contour>
    <contour>
      <point x="1267" y="1065" type="line"/>
      <point x="-51" y="1065" type="line"/>
      <point x="-51" y="1293" type="line"/>
      <point x="1267" y="1293" type="line"/>
    </contour>
    <contour>
      <point x="724" y="1280" type="move" name="mark0"/>
    </contour>
  </outline>
</glyph>
<glyph name="dhaprehalfdeva" format="1">
  <advance width="844"/>
  <outline>
    <contour>
      <point x="764" y="635" type="line"/>
      <point x="760" y="635"/>
      <point x="761" y="635"/>
      <point x="758" y="635" type="curve"/>
      <point x="629" y="635"/>
      <point x="532" y="579"/>
      <point x="532" y="501" type="curve" smooth="yes"/>
      <point x="532" y="451"/>
      <point x="570" y="415"/>
      <point x="644" y="415" type="curve" smooth="yes"/>
      <point x="758" y="415"/>
      <point x="899" y="473"/>
      <point x="999" y="652" type="curve"/>
      <point x="1204" y="393" type="line"/>
      <point x="1055" y="217"/>
      <point x="905" y="135"/>
      <point x="669" y="135" type="curve" smooth="yes"/>
      <point x="378" y="135"/>
      <point x="217" y="338"/>
      <point x="217" y="543" type="curve" smooth="yes"/>
      <point x="217" y="713"/>
      <point x="343" y="910"/>
      <point x="664" y="910" type="curve" smooth="yes"/>
      <point x="668" y="910"/>
      <point x="671" y="910"/>
      <point x="675" y="910" type="curve"/>
    </contour>
    <contour>
      <point x="1333" y="1065" type="line"/>
      <point x="824" y="1065" type="line"/>
      <point x="824" y="1293" type="line"/>
      <point x="1333" y="1293" type="line"/>
    </contour>
    <contour>
      <point x="338" y="704" type="line"/>
      <point x="125" y="772"/>
      <point x="-8" y="903"/>
      <point x="-8" y="1072" type="curve" smooth="yes"/>
      <point x="-8" y="1230"/>
      <point x="128" y="1356"/>
      <point x="344" y="1356" type="curve" smooth="yes"/>
      <point x="465" y="1356"/>
      <point x="530" y="1344"/>
      <point x="616" y="1313" type="curve"/>
      <point x="588" y="1093" type="line"/>
      <point x="536" y="1104"/>
      <point x="501" y="1109"/>
      <point x="452" y="1109" type="curve" smooth="yes"/>
      <point x="376" y="1109"/>
      <point x="335" y="1058"/>
      <point x="335" y="1004" type="curve" smooth="yes"/>
      <point x="335" y="936"/>
      <point x="412" y="875"/>
      <point x="567" y="868" type="curve"/>
    </contour>
  </outline>
</glyph>
<glyph name="eshortvowelsigncandrabindudeva" format="1">
  <advance width="0"/>
  <outline>
    <component base="eshortvowelsigndeva"/>
    <component base="candrabindusmalldeva" xOffset="233"/>
    <contour>
      <point x="-419" y="1274" type="move" name="_mark0"/>
    </contour>
  </outline>
</glyph>
<glyph name="hamadeva" format="1">
  <advance width="1918"/>
  <outline>
    <contour>
      <point x="445" y="85" type="curve" smooth="yes"/>
      <point x="445" y="-42"/>
      <point x="504" y="-150"/>
      <point x="761" y="-356" type="curve"/>
      <point x="564" y="-505" type="line"/>
      <point x="276" y="-284"/>
      <point x="156" y="-73"/>
      <point x="156" y="141" type="curve" smooth="yes"/>
      <point x="156" y="367"/>
      <point x="310" y="575"/>
      <point x="639" y="575" type="curve" smooth="yes"/>
      <point x="940" y="575"/>
      <point x="1154" y="403"/>
      <point x="1154" y="123" type="curve" smooth="yes"/>
      <point x="1154" y="90" type="line"/>
      <point x="1076" y="193" type="line"/>
      <point x="1454" y="193" type="line"/>
      <point x="1454" y="-76" type="line"/>
      <point x="1105" y="-76" type="line"/>
      <point x="1154" y="-27" type="line"/>
      <point x="1154" y="-143" type="line"/>
      <point x="1154" y="-232"/>
      <point x="1114" y="-285"/>
      <point x="1026" y="-285" type="curve" smooth="yes"/>
      <point x="893" y="-285"/>
      <point x="669" y="-93"/>
      <point x="669" y="65" type="curve" smooth="yes"/>
      <point x="669" y="141"/>
      <point x="719" y="193"/>
      <point x="806" y="193" type="curve" smooth="yes"/>
      <point x="885" y="193" type="line"/>
      <point x="860" y="130" type="line"/>
      <point x="860" y="165" type="line"/>
      <point x="860" y="268"/>
      <point x="793" y="325"/>
      <point x="662" y="325" type="curve" smooth="yes"/>
      <point x="544" y="325"/>
      <point x="445" y="243"/>
    </contour>
    <contour>
      <point x="744" y="1075" type="line"/>
      <point x="1092" y="1075" type="line"/>
      <point x="1092" y="708" type="line"/>
      <point x="526" y="708" type="line"/>
      <point x="429" y="708"/>
      <point x="389" y="668"/>
      <point x="389" y="616" type="curve" smooth="yes"/>
      <point x="389" y="564"/>
      <point x="434" y="532"/>
      <point x="531" y="508" type="curve"/>
      <point x="299" y="341" type="line"/>
      <point x="132" y="442"/>
      <point x="52" y="553"/>
      <point x="52" y="688" type="curve" smooth="yes"/>
      <point x="52" y="826"/>
      <point x="162" y="936"/>
      <point x="383" y="936" type="curve" smooth="yes"/>
      <point x="783" y="936" type="line"/>
      <point x="744" y="883" type="line"/>
    </contour>
    <contour>
      <point x="-25" y="1065" type="line"/>
      <point x="-25" y="1293" type="line"/>
      <point x="1948" y="1293" type="line"/>
      <point x="1948" y="1065" type="line"/>
    </contour>
    <contour>
      <point x="1387" y="1104" type="line"/>
      <point x="1736" y="1104" type="line"/>
      <point x="1736" y="-355" type="line"/>
      <point x="1387" y="-355" type="line"/>
    </contour>
  </outline>
</glyph>
<glyph name="hanadeva" format="1">
  <advance width="1484"/>
  <outline>
    <contour>
      <point x="432" y="47" type="curve" smooth="yes"/>
      <point x="432" y="-99"/>
      <point x="511" y="-209"/>
      <point x="752" y="-406" type="curve"/>
      <point x="559" y="-555" type="line"/>
      <point x="265" y="-328"/>
      <point x="147" y="-130"/>
      <point x="147" y="112" type="curve" smooth="yes"/>
      <point x="147" y="325"/>
      <point x="324" y="588"/>
      <point x="756" y="588" type="curve" smooth="yes"/>
      <point x="1222" y="588"/>
      <point x="1457" y="389"/>
      <point x="1457" y="81" type="curve" smooth="yes"/>
      <point x="1457" y="-354" type="line"/>
      <point x="1154" y="-354" type="line"/>
      <point x="1154" y="93" type="line"/>
      <point x="1154" y="247"/>
      <point x="1058" y="334"/>
      <point x="768" y="334" type="curve" smooth="yes"/>
      <point x="554" y="334"/>
      <point x="432" y="204"/>
    </contour>
    <contour>
      <point x="1517" y="1065" type="line"/>
      <point x="-21" y="1065" type="line"/>
      <point x="-21" y="1293" type="line"/>
      <point x="1517" y="1293" type="line"/>
    </contour>
    <contour>
      <point x="1001" y="1075" type="line"/>
      <point x="1349" y="1075" type="line"/>
      <point x="1349" y="708" type="line"/>
      <point x="531" y="708" type="line"/>
      <point x="433" y="708"/>
      <point x="394" y="668"/>
      <point x="394" y="616" type="curve" smooth="yes"/>
      <point x="394" y="565"/>
      <point x="439" y="532"/>
      <point x="536" y="508" type="curve"/>
      <point x="304" y="341" type="line"/>
      <point x="136" y="442"/>
      <point x="57" y="554"/>
      <point x="57" y="688" type="curve" smooth="yes"/>
      <point x="57" y="825"/>
      <point x="167" y="936"/>
      <point x="388" y="936" type="curve" smooth="yes"/>
      <point x="1040" y="936" type="line"/>
      <point x="1001" y="883" type="line"/>
    </contour>
    <contour>
      <point x="1347" y="205" type="line"/>
      <point x="1347" y="-32" type="line"/>
      <point x="942" y="-32" type="line"/>
      <point x="991" y="17" type="line"/>
      <point x="991" y="-112" type="line"/>
      <point x="991" y="-191"/>
      <point x="956" y="-238"/>
      <point x="887" y="-238" type="curve" smooth="yes"/>
      <point x="794" y="-238"/>
      <point x="618" y="-38"/>
      <point x="620" y="88" type="curve" smooth="yes"/>
      <point x="621" y="162"/>
      <point x="665" y="205"/>
      <point x="772" y="205" type="curve" smooth="yes"/>
    </contour>
    <contour>
      <point x="1113" y="1280" type="move" name="mark0"/>
    </contour>
  </outline>
</glyph>
<glyph name="haradeva" format="1">
  <advance width="1275"/>
  <outline>
    <contour>
      <point x="993" y="385" type="line"/>
      <point x="835" y="0" type="line"/>
      <point x="596" y="86" type="line"/>
      <point x="757" y="459" type="line"/>
    </contour>
    <contour>
      <point x="744" y="596" type="curve" smooth="yes"/>
      <point x="1115" y="596"/>
      <point x="1292" y="394"/>
      <point x="1292" y="228" type="curve" smooth="yes"/>
      <point x="1292" y="147"/>
      <point x="1284" y="87"/>
      <point x="1255" y="14" type="curve"/>
      <point x="990" y="71" type="line"/>
      <point x="1004" y="109"/>
      <point x="1013" y="151"/>
      <point x="1013" y="211" type="curve" smooth="yes"/>
      <point x="1013" y="293"/>
      <point x="924" y="353"/>
      <point x="801" y="353" type="curve" smooth="yes"/>
      <point x="581" y="353"/>
      <point x="485" y="255"/>
      <point x="485" y="131" type="curve" smooth="yes"/>
      <point x="485" y="-4"/>
      <point x="617" y="-93"/>
      <point x="1042" y="-154" type="curve"/>
      <point x="953" y="-381" type="line"/>
      <point x="411" y="-315"/>
      <point x="166" y="-101"/>
      <point x="166" y="182" type="curve" smooth="yes"/>
      <point x="166" y="375"/>
      <point x="328" y="596"/>
    </contour>
    <contour>
      <point x="1304" y="1065" type="line"/>
      <point x="-21" y="1065" type="line"/>
      <point x="-21" y="1293" type="line"/>
      <point x="1304" y="1293" type="line"/>
    </contour>
    <contour>
      <point x="779" y="1075" type="line"/>
      <point x="1127" y="1075" type="line"/>
      <point x="1127" y="708" type="line"/>
      <point x="532" y="708" type="line"/>
      <point x="434" y="708"/>
      <point x="394" y="668"/>
      <point x="394" y="616" type="curve" smooth="yes"/>
      <point x="394" y="564"/>
      <point x="439" y="532"/>
      <point x="536" y="508" type="curve"/>
      <point x="304" y="341" type="line"/>
      <point x="137" y="442"/>
      <point x="57" y="553"/>
      <point x="57" y="688" type="curve" smooth="yes"/>
      <point x="57" y="826"/>
      <point x="167" y="936"/>
      <point x="388" y="936" type="curve" smooth="yes"/>
      <point x="818" y="936" type="line"/>
      <point x="779" y="883" type="line"/>
    </contour>
  </outline>
</glyph>
<glyph name="haraudeva" format="1">
  <advance width="1282"/>
  <outline>
    <contour>
      <point x="0" y="0" type="line"/>
      <point x="1282" y="0" type="line"/>
      <point x="1282" y="20" type="line"/>
      <point x="0" y="20" type="line"/>
    </contour>
  </outline>
</glyph>
<glyph name="iinuktaanusvaradeva" format="1">
  <advance width="1140"/>
  <outline>
    <contour>
      <point x="0" y="0" type="line"/>
      <point x="1140" y="0" type="line"/>
      <point x="1140" y="20" type="line"/>
      <point x="0" y="20" type="line"/>
    </contour>
  </outline>
</glyph>
<glyph name="iivowelsign2deva" format="1">
  <advance width="676"/>
  <outline>
    <contour>
      <point x="130" y="1239" type="line"/>
      <point x="24" y="1435"/>
      <point x="-125" y="1538"/>
      <point x="-304" y="1538" type="curve" smooth="yes"/>
      <point x="-410" y="1538"/>
      <point x="-458" y="1491"/>
      <point x="-458" y="1431" type="curve" smooth="yes"/>
      <point x="-458" y="1364"/>
      <point x="-425" y="1313"/>
      <point x="-369" y="1251" type="curve"/>
      <point x="-688" y="1251" type="line"/>
      <point x="-740" y="1314"/>
      <point x="-789" y="1414"/>
      <point x="-789" y="1521" type="curve" smooth="yes"/>
      <point x="-789" y="1683"/>
      <point x="-640" y="1831"/>
      <point x="-388" y="1831" type="curve" smooth="yes"/>
      <point x="-47" y="1831"/>
      <point x="295" y="1638"/>
      <point x="465" y="1239" type="curve"/>
    </contour>
    <component base="aavowelsigndeva"/>
  </outline>
</glyph>
<glyph name="ivowelsign05deva" format="1">
  <advance width="676"/>
  <outline>
    <contour>
      <point x="139" y="1254" type="line"/>
      <point x="139" y="1339" type="line"/>
      <point x="139" y="1601"/>
      <point x="311" y="1827"/>
      <point x="754" y="1827" type="curve" smooth="yes"/>
      <point x="1225" y="1827"/>
      <point x="1712" y="1607"/>
      <point x="2058" y="1254" type="curve"/>
      <point x="1676" y="1254" type="line"/>
      <point x="1362" y="1444"/>
      <point x="1114" y="1526"/>
      <point x="810" y="1526" type="curve" smooth="yes"/>
      <point x="566" y="1526"/>
      <point x="488" y="1421"/>
      <point x="488" y="1312" type="curve" smooth="yes"/>
      <point x="488" y="1254" type="line"/>
    </contour>
    <component base="aavowelsigndeva"/>
  </outline>
</glyph>
<glyph name="ivowelsign07deva" format="1">
  <advance width="676"/>
  <outline>
    <contour>
      <point x="139" y="1254" type="line"/>
      <point x="139" y="1339" type="line"/>
      <point x="139" y="1600"/>
      <point x="321" y="1827"/>
      <point x="808" y="1827" type="curve" smooth="yes"/>
      <point x="1378" y="1827"/>
      <point x="1849" y="1620"/>
      <point x="2325" y="1254" type="curve"/>
      <point x="1909" y="1254" type="line"/>
      <point x="1543" y="1469"/>
      <point x="1220" y="1557"/>
      <point x="886" y="1557" type="curve" smooth="yes"/>
      <point x="587" y="1557"/>
      <point x="488" y="1430"/>
      <point x="488" y="1312" type="curve" smooth="yes"/>
      <point x="488" y="1254" type="line"/>
    </contour>
    <component base="aavowelsigndeva"/>
  </outline>
</glyph>
<glyph name="jaraprehalfdeva" format="1">
  <advance width="952"/>
  <outline>
    <contour>
      <point x="1278" y="364" type="line"/>
      <point x="845" y="-163" type="line"/>
      <point x="629" y="-42" type="line"/>
      <point x="1138" y="578" type="line"/>
    </contour>
    <contour>
      <point x="680" y="651" type="line"/>
      <point x="696" y="716" type="line"/>
      <point x="793" y="644"/>
      <point x="854" y="536"/>
      <point x="854" y="417" type="curve" smooth="yes"/>
      <point x="854" y="262"/>
      <point x="725" y="96"/>
      <point x="518" y="96" type="curve" smooth="yes"/>
      <point x="316" y="96"/>
      <point x="163" y="209"/>
      <point x="-39" y="440" type="curve"/>
      <point x="122" y="675" type="line"/>
      <point x="313" y="446"/>
      <point x="380" y="397"/>
      <point x="450" y="397" type="curve" smooth="yes"/>
      <point x="514" y="397"/>
      <point x="551" y="428"/>
      <point x="551" y="487" type="curve" smooth="yes"/>
      <point x="551" y="554"/>
      <point x="493" y="648"/>
      <point x="346" y="685" type="curve"/>
      <point x="346" y="925" type="line"/>
      <point x="1337" y="925" type="line"/>
      <point x="1337" y="651" type="line"/>
    </contour>
    <contour>
      <point x="-82" y="1065" type="line"/>
      <point x="-82" y="1293" type="line"/>
      <point x="1320" y="1293" type="line"/>
      <point x="1320" y="1065" type="line"/>
    </contour>
  </outline>
</glyph>
<glyph name="kassadeva" format="1">
  <advance width="1598"/>
  <outline>
    <contour>
      <point x="1051" y="1104" type="line"/>
      <point x="1399" y="1104" type="line"/>
      <point x="1399" y="0" type="line"/>
      <point x="1051" y="0" type="line"/>
    </contour>
    <contour>
      <point x="1613" y="1065" type="line"/>
      <point x="933" y="1065" type="line"/>
      <point x="933" y="1293" type="line"/>
      <point x="1613" y="1293" type="line"/>
    </contour>
    <contour>
      <point x="485" y="122" type="line"/>
      <point x="721" y="198" type="line"/>
      <point x="860" y="-117" type="line"/>
      <point x="608" y="-196" type="line"/>
    </contour>
    <contour>
      <point x="589" y="991" type="curve" smooth="yes"/>
      <point x="589" y="1044"/>
      <point x="551" y="1078"/>
      <point x="496" y="1078" type="curve" smooth="yes"/>
      <point x="436" y="1078"/>
      <point x="400" y="1037"/>
      <point x="400" y="977" type="curve" smooth="yes"/>
      <point x="400" y="846"/>
      <point x="651" y="734"/>
      <point x="1162" y="734" type="curve"/>
      <point x="1160" y="472" type="line"/>
      <point x="431" y="472"/>
      <point x="106" y="754"/>
      <point x="106" y="1029" type="curve" smooth="yes"/>
      <point x="106" y="1193"/>
      <point x="228" y="1322"/>
      <point x="465" y="1322" type="curve" smooth="yes"/>
      <point x="734" y="1322"/>
      <point x="863" y="1167"/>
      <point x="863" y="1000" type="curve" smooth="yes"/>
      <point x="863" y="831"/>
      <point x="781" y="711"/>
      <point x="567" y="583" type="curve" smooth="yes"/>
      <point x="398" y="482"/>
      <point x="334" y="409"/>
      <point x="334" y="344" type="curve" smooth="yes"/>
      <point x="334" y="276"/>
      <point x="378" y="238"/>
      <point x="462" y="238" type="curve" smooth="yes"/>
      <point x="508" y="238"/>
      <point x="516" y="241"/>
      <point x="589" y="263" type="curve"/>
      <point x="469" y="160" type="line"/>
      <point x="452" y="205"/>
      <point x="444" y="232"/>
      <point x="444" y="278" type="curve" smooth="yes"/>
      <point x="444" y="334"/>
      <point x="521" y="398"/>
      <point x="612" y="398" type="curve" smooth="yes"/>
      <point x="777" y="398"/>
      <point x="878" y="310"/>
      <point x="878" y="219" type="curve" smooth="yes"/>
      <point x="878" y="123"/>
      <point x="717" y="18"/>
      <point x="492" y="18" type="curve" smooth="yes"/>
      <point x="230" y="18"/>
      <point x="20" y="136"/>
      <point x="20" y="373" type="curve" smooth="yes"/>
      <point x="20" y="517"/>
      <point x="127" y="634"/>
      <point x="336" y="747" type="curve" smooth="yes"/>
      <point x="539" y="857"/>
      <point x="589" y="919"/>
    </contour>
  </outline>
</glyph>
<glyph name="kassaraprehalfdeva" format="1">
  <advance width="972"/>
  <outline>
    <contour>
      <point x="291" y="121" type="line"/>
      <point x="527" y="197" type="line"/>
      <point x="665" y="-117" type="line"/>
      <point x="413" y="-196" type="line"/>
    </contour>
    <contour>
      <point x="482" y="583" type="curve" smooth="yes"/>
      <point x="200" y="464"/>
      <point x="161" y="408"/>
      <point x="161" y="342" type="curve" smooth="yes"/>
      <point x="161" y="274"/>
      <point x="201" y="238"/>
      <point x="269" y="238" type="curve" smooth="yes"/>
      <point x="314" y="238"/>
      <point x="322" y="240"/>
      <point x="395" y="262" type="curve"/>
      <point x="275" y="159" type="line"/>
      <point x="257" y="205"/>
      <point x="250" y="232"/>
      <point x="250" y="277" type="curve" smooth="yes"/>
      <point x="250" y="334"/>
      <point x="327" y="397"/>
      <point x="418" y="397" type="curve" smooth="yes"/>
      <point x="583" y="397"/>
      <point x="684" y="309"/>
      <point x="684" y="218" type="curve" smooth="yes"/>
      <point x="684" y="123"/>
      <point x="523" y="18"/>
      <point x="299" y="18" type="curve" smooth="yes"/>
      <point x="54" y="18"/>
      <point x="-153" y="134"/>
      <point x="-153" y="372" type="curve" smooth="yes"/>
      <point x="-153" y="517"/>
      <point x="-49" y="651"/>
      <point x="278" y="775" type="curve" smooth="yes"/>
      <point x="523" y="869"/>
      <point x="589" y="924"/>
      <point x="589" y="991" type="curve" smooth="yes"/>
      <point x="589" y="1044"/>
      <point x="551" y="1078"/>
      <point x="496" y="1078" type="curve" smooth="yes"/>
      <point x="436" y="1078"/>
      <point x="400" y="1037"/>
      <point x="400" y="977" type="curve" smooth="yes"/>
      <point x="400" y="866"/>
      <point x="648" y="735"/>
      <point x="1074" y="735" type="curve" smooth="yes"/>
      <point x="1134" y="735"/>
      <point x="1250" y="750"/>
      <point x="1294" y="763" type="curve"/>
      <point x="1313" y="501" type="line"/>
      <point x="1243" y="482"/>
      <point x="1144" y="472"/>
      <point x="1078" y="472" type="curve" smooth="yes"/>
      <point x="464" y="472"/>
      <point x="106" y="755"/>
      <point x="106" y="1029" type="curve" smooth="yes"/>
      <point x="106" y="1193"/>
      <point x="228" y="1322"/>
      <point x="465" y="1322" type="curve" smooth="yes"/>
      <point x="734" y="1322"/>
      <point x="863" y="1167"/>
      <point x="863" y="1000" type="curve" smooth="yes"/>
      <point x="863" y="831"/>
      <point x="734" y="690"/>
    </contour>
    <contour>
      <point x="1207" y="524" type="line"/>
      <point x="959" y="5" type="line"/>
      <point x="705" y="134" type="line"/>
      <point x="991" y="663" type="line"/>
    </contour>
  </outline>
</glyph>
<glyph name="llaradeva" format="1">
  <advance width="1666"/>
  <outline>
    <component base="vattudeva" xOffset="1392" yOffset="2"/>
    <component base="lladeva"/>
    <contour>
      <point x="1184" y="1274" type="move" name="mark0"/>
    </contour>
  </outline>
</glyph>
<glyph name="nanuktaprehalfdeva" format="1">
  <advance width="777"/>
  <outline>
    <contour>
      <point x="0" y="0" type="line"/>
      <point x="777" y="0" type="line"/>
      <point x="777" y="20" type="line"/>
      <point x="0" y="20" type="line"/>
    </contour>
  </outline>
</glyph>
<glyph name="nyaradeva" format="1">
  <advance width="1698"/>
  <outline>
    <contour>
      <point x="1385" y="187" type="line"/>
      <point x="672" y="-204" type="line"/>
      <point x="513" y="-8" type="line"/>
      <point x="1244" y="401" type="line"/>
    </contour>
    <contour>
      <point x="872" y="446" type="curve"/>
      <point x="872" y="717" type="line"/>
      <point x="906" y="706"/>
      <point x="987" y="701"/>
      <point x="1032" y="701" type="curve" smooth="yes"/>
      <point x="1103" y="701"/>
      <point x="1161" y="716"/>
      <point x="1244" y="757" type="curve"/>
      <point x="1244" y="441" type="line"/>
      <point x="1216" y="433"/>
      <point x="1159" y="421"/>
      <point x="1104" y="421" type="curve" smooth="yes"/>
      <point x="1033" y="421"/>
      <point x="925" y="434"/>
    </contour>
    <contour>
      <point x="986" y="542" type="curve" smooth="yes"/>
      <point x="986" y="304"/>
      <point x="789" y="152"/>
      <point x="568" y="152" type="curve" smooth="yes"/>
      <point x="385" y="152"/>
      <point x="202" y="217"/>
      <point x="-10" y="393" type="curve"/>
      <point x="88" y="631" type="line"/>
      <point x="267" y="481"/>
      <point x="387" y="434"/>
      <point x="491" y="434" type="curve" smooth="yes"/>
      <point x="604" y="434"/>
      <point x="686" y="485"/>
      <point x="685" y="564" type="curve" smooth="yes"/>
      <point x="684" y="643"/>
      <point x="617" y="701"/>
      <point x="519" y="701" type="curve" smooth="yes"/>
      <point x="453" y="701"/>
      <point x="376" y="674"/>
      <point x="309" y="632" type="curve"/>
      <point x="193" y="875" type="line"/>
      <point x="265" y="929"/>
      <point x="383" y="976"/>
      <point x="500" y="976" type="curve" smooth="yes"/>
      <point x="749" y="976"/>
      <point x="986" y="806"/>
    </contour>
    <contour>
      <point x="-28" y="1065" type="line"/>
      <point x="-28" y="1293" type="line"/>
      <point x="1746" y="1293" type="line"/>
      <point x="1746" y="1065" type="line"/>
    </contour>
    <contour>
      <point x="1183" y="1104" type="line"/>
      <point x="1532" y="1104" type="line"/>
      <point x="1532" y="0" type="line"/>
      <point x="1183" y="0" type="line"/>
    </contour>
  </outline>
</glyph>
<glyph name="ranuktauudeva" format="1">
  <advance width="1973"/>
  <outline>
    <contour>
      <point x="0" y="0" type="line"/>
      <point x="1973" y="0" type="line"/>
      <point x="1973" y="20" type="line"/>
      <point x="0" y="20" type="line"/>
    </contour>
  </outline>
</glyph>
<glyph name="rephanusvaradeva" format="1">
  <advance width="-1"/>
  <outline>
    <contour>
      <point x="-106" y="1561" type="curve" smooth="yes"/>
      <point x="-13" y="1561"/>
      <point x="27" y="1503"/>
      <point x="27" y="1451" type="curve" smooth="yes"/>
      <point x="27" y="1402"/>
      <point x="-13" y="1342"/>
      <point x="-106" y="1342" type="curve" smooth="yes"/>
      <point x="-192" y="1342"/>
      <point x="-238" y="1399"/>
      <point x="-238" y="1451" type="curve" smooth="yes"/>
      <point x="-238" y="1504"/>
      <point x="-193" y="1561"/>
    </contour>
    <contour>
      <point x="-509" y="1244" type="line"/>
      <point x="-562" y="1311"/>
      <point x="-604" y="1407"/>
      <point x="-604" y="1503" type="curve" smooth="yes"/>
      <point x="-604" y="1667"/>
      <point x="-455" y="1822"/>
      <point x="-192" y="1822" type="curve" smooth="yes"/>
      <point x="-129" y="1822"/>
      <point x="-76" y="1814"/>
      <point x="-24" y="1801" type="curve"/>
      <point x="-34" y="1627" type="line"/>
      <point x="-63" y="1631"/>
      <point x="-86" y="1632"/>
      <point x="-130" y="1632" type="curve" smooth="yes"/>
      <point x="-240" y="1632"/>
      <point x="-316" y="1548"/>
      <point x="-316" y="1444" type="curve" smooth="yes"/>
      <point x="-316" y="1379"/>
      <point x="-291" y="1316"/>
      <point x="-238" y="1244" type="curve"/>
    </contour>
    <contour>
      <point x="49" y="8" type="move" name="x29"/>
    </contour>
    <contour>
      <point x="-424" y="1282" type="move" name="_mark0"/>
    </contour>
  </outline>
</glyph>
<glyph name="sanuktaradeva" format="1">
  <advance width="1823"/>
  <outline>
    <contour>
      <point x="0" y="0" type="line"/>
      <point x="1823" y="0" type="line"/>
      <point x="1823" y="20" type="line"/>
      <point x="0" y="20" type="line"/>
    </contour>
  </outline>
</glyph>
<glyph name="shacaprehalfdeva" format="1">
  <advance width="1017"/>
  <outline>
    <contour>
      <point x="333" y="-46" type="line"/>
      <point x="198" y="157" type="line"/>
      <point x="762" y="460" type="line"/>
      <point x="892" y="264" type="line"/>
    </contour>
    <contour>
      <point x="1059" y="342" type="curve"/>
      <point x="1207" y="-26" type="line"/>
      <point x="1118" y="-141"/>
      <point x="1006" y="-229"/>
      <point x="820" y="-229" type="curve" smooth="yes"/>
      <point x="626" y="-229"/>
      <point x="478" y="-95"/>
      <point x="478" y="87" type="curve" smooth="yes"/>
      <point x="478" y="211"/>
      <point x="554" y="328"/>
      <point x="739" y="415" type="curve"/>
      <point x="856" y="244" type="line"/>
      <point x="780" y="209"/>
      <point x="747" y="153"/>
      <point x="746" y="104" type="curve" smooth="yes"/>
      <point x="746" y="52"/>
      <point x="776" y="16"/>
      <point x="831" y="16" type="curve" smooth="yes"/>
      <point x="934" y="16"/>
      <point x="1059" y="133"/>
    </contour>
    <contour>
      <point x="152" y="336" type="line"/>
      <point x="3" y="572" type="line"/>
      <point x="320" y="736" type="line"/>
      <point x="519" y="836"/>
      <point x="593" y="905"/>
      <point x="593" y="982" type="curve" smooth="yes"/>
      <point x="593" y="1035"/>
      <point x="559" y="1076"/>
      <point x="505" y="1076" type="curve" smooth="yes"/>
      <point x="438" y="1076"/>
      <point x="408" y="1036"/>
      <point x="408" y="986" type="curve" smooth="yes"/>
      <point x="408" y="872"/>
      <point x="615" y="775"/>
      <point x="1198" y="691" type="curve"/>
      <point x="1127" y="457" type="line"/>
      <point x="352" y="536"/>
      <point x="106" y="786"/>
      <point x="106" y="1027" type="curve" smooth="yes"/>
      <point x="106" y="1180"/>
      <point x="232" y="1326"/>
      <point x="470" y="1326" type="curve" smooth="yes"/>
      <point x="715" y="1326"/>
      <point x="869" y="1173"/>
      <point x="869" y="975" type="curve" smooth="yes"/>
      <point x="869" y="785"/>
      <point x="759" y="647"/>
      <point x="450" y="489" type="curve" smooth="yes"/>
    </contour>
    <contour>
      <point x="1580" y="1065" type="line"/>
      <point x="936" y="1065" type="line"/>
      <point x="936" y="1293" type="line"/>
      <point x="1580" y="1293" type="line"/>
    </contour>
  </outline>
</glyph>
<glyph name="shadevaMAR" format="1">
  <advance width="1691"/>
  <outline>
    <contour>
      <point x="435" y="1104" type="line"/>
      <point x="784" y="1104" type="line"/>
      <point x="784" y="937" type="line"/>
      <point x="435" y="937" type="line"/>
    </contour>
    <contour>
      <point x="668" y="338" type="line"/>
      <point x="936" y="109" type="line"/>
      <point x="737" y="-73" type="line"/>
      <point x="412" y="214" type="line"/>
    </contour>
    <contour>
      <point x="330" y="140" type="curve" smooth="yes"/>
      <point x="189" y="140"/>
      <point x="132" y="226"/>
      <point x="132" y="330" type="curve" smooth="yes"/>
      <point x="132" y="441"/>
      <point x="218" y="563"/>
      <point x="335" y="563" type="curve" smooth="yes"/>
      <point x="420" y="563"/>
      <point x="483" y="520"/>
      <point x="566" y="442" type="curve"/>
      <point x="454" y="461" type="line"/>
      <point x="593" y="493"/>
      <point x="652" y="565"/>
      <point x="652" y="632" type="curve" smooth="yes"/>
      <point x="652" y="702"/>
      <point x="600" y="749"/>
      <point x="519" y="749" type="curve" smooth="yes"/>
      <point x="383" y="749"/>
      <point x="272" y="701"/>
      <point x="177" y="643" type="curve"/>
      <point x="89" y="901" type="line"/>
      <point x="201" y="945"/>
      <point x="317" y="986"/>
      <point x="537" y="986" type="curve" smooth="yes"/>
      <point x="845" y="986"/>
      <point x="986" y="840"/>
      <point x="986" y="630" type="curve" smooth="yes"/>
      <point x="986" y="356"/>
      <point x="609" y="140"/>
    </contour>
    <contour>
      <point x="1154" y="1104" type="line"/>
      <point x="1503" y="1104" type="line"/>
      <point x="1503" y="0" type="line"/>
      <point x="1154" y="0" type="line"/>
    </contour>
    <contour>
      <point x="1716" y="1065" type="line"/>
      <point x="-20" y="1065" type="line"/>
      <point x="-20" y="1293" type="line"/>
      <point x="1716" y="1293" type="line"/>
    </contour>
  </outline>
</glyph>
<glyph name="shaprehalfaltdeva" format="1">
  <advance width="1194"/>
  <outline>
    <contour>
      <point x="0" y="0" type="line"/>
      <point x="1194" y="0" type="line"/>
      <point x="1194" y="20" type="line"/>
      <point x="0" y="20" type="line"/>
    </contour>
  </outline>
</glyph>
<glyph name="ssattadeva" format="1">
  <advance width="1307"/>
  <outline>
    <contour>
      <point x="882" y="605" type="line"/>
      <point x="757" y="513" type="line"/>
      <point x="310" y="1054" type="line"/>
      <point x="435" y="1146" type="line"/>
    </contour>
    <contour>
      <point x="1333" y="1065" type="line"/>
      <point x="-48" y="1065" type="line"/>
      <point x="-48" y="1293" type="line"/>
      <point x="1333" y="1293" type="line"/>
    </contour>
    <contour>
      <point x="466" y="100" type="curve" smooth="yes"/>
      <point x="466" y="9"/>
      <point x="553" y="-43"/>
      <point x="679" y="-43" type="curve" smooth="yes"/>
      <point x="788" y="-43"/>
      <point x="870" y="-21"/>
      <point x="1037" y="47" type="curve"/>
      <point x="1100" y="-238" type="line"/>
      <point x="936" y="-290"/>
      <point x="856" y="-305"/>
      <point x="720" y="-305" type="curve" smooth="yes"/>
      <point x="342" y="-305"/>
      <point x="124" y="-113"/>
      <point x="124" y="141" type="curve" smooth="yes"/>
      <point x="124" y="349"/>
      <point x="261" y="513"/>
      <point x="610" y="513" type="curve" smooth="yes"/>
      <point x="632" y="513" type="line"/>
      <point x="643" y="273" type="line"/>
      <point x="634" y="273" type="line"/>
      <point x="515" y="273"/>
      <point x="466" y="193"/>
    </contour>
    <contour>
      <point x="770" y="718" type="curve" smooth="yes"/>
      <point x="770" y="1104" type="line"/>
      <point x="1119" y="1104" type="line"/>
      <point x="1119" y="646" type="line"/>
      <point x="1119" y="495"/>
      <point x="990" y="273"/>
      <point x="633" y="273" type="curve" smooth="yes"/>
      <point x="323" y="273"/>
      <point x="113" y="464"/>
      <point x="113" y="756" type="curve" smooth="yes"/>
      <point x="113" y="1171" type="line"/>
      <point x="462" y="1171" type="line"/>
      <point x="462" y="677" type="line"/>
      <point x="462" y="588"/>
      <point x="501" y="540"/>
      <point x="575" y="540" type="curve" smooth="yes"/>
      <point x="707" y="540"/>
      <point x="770" y="609"/>
    </contour>
    <contour>
      <point x="737" y="6" type="move" name="mark0"/>
    </contour>
  </outline>
</glyph>
<glyph name="taradeva" format="1">
  <advance width="1228"/>
  <outline>
    <contour>
      <point x="887" y="381" type="line"/>
      <point x="251" y="77" type="line"/>
      <point x="92" y="325" type="line"/>
      <point x="728" y="615" type="line"/>
    </contour>
    <contour>
      <point x="-79" y="1065" type="line"/>
      <point x="-79" y="1293" type="line"/>
      <point x="1240" y="1293" type="line"/>
      <point x="1240" y="1065" type="line"/>
    </contour>
    <contour>
      <point x="-13" y="862" type="line"/>
      <point x="69" y="903"/>
      <point x="186" y="934"/>
      <point x="285" y="934" type="curve" smooth="yes"/>
      <point x="434" y="934"/>
      <point x="565" y="878"/>
      <point x="727" y="775" type="curve"/>
      <point x="727" y="471" type="line"/>
      <point x="572" y="585"/>
      <point x="446" y="647"/>
      <point x="332" y="647" type="curve" smooth="yes"/>
      <point x="251" y="647"/>
      <point x="145" y="615"/>
      <point x="70" y="572" type="curve"/>
    </contour>
    <contour>
      <point x="690" y="1104" type="line"/>
      <point x="1039" y="1104" type="line"/>
      <point x="1039" y="0" type="line"/>
      <point x="690" y="0" type="line"/>
    </contour>
  </outline>
</glyph>
<glyph name="taraprehalfdeva" format="1">
  <advance width="692"/>
  <outline>
    <contour>
      <point x="-82" y="1065" type="line"/>
      <point x="-82" y="1293" type="line"/>
      <point x="944" y="1293" type="line"/>
      <point x="944" y="1065" type="line"/>
    </contour>
    <contour>
      <point x="887" y="666" type="curve"/>
      <point x="887" y="381" type="line"/>
      <point x="251" y="77" type="line"/>
      <point x="92" y="325" type="line"/>
      <point x="728" y="615" type="line"/>
      <point x="728" y="473" type="line"/>
      <point x="571" y="585"/>
      <point x="445" y="647"/>
      <point x="332" y="647" type="curve" smooth="yes"/>
      <point x="251" y="647"/>
      <point x="145" y="615"/>
      <point x="70" y="572" type="curve"/>
      <point x="-13" y="862" type="line"/>
      <point x="69" y="903"/>
      <point x="186" y="934"/>
      <point x="285" y="934" type="curve" smooth="yes"/>
      <point x="434" y="934"/>
      <point x="611" y="867"/>
    </contour>
  </outline>
</glyph>
<glyph name="ttattadeva" format="1">
  <advance width="1180"/>
  <outline>
    <contour>
      <point x="620" y="213" type="line"/>
      <point x="926" y="213" type="line"/>
      <point x="926" y="-172" type="line"/>
      <point x="694" y="-172" type="line"/>
      <point x="515" y="-172"/>
      <point x="451" y="-250"/>
      <point x="451" y="-330" type="curve" smooth="yes"/>
      <point x="451" y="-418"/>
      <point x="551" y="-481"/>
      <point x="658" y="-481" type="curve" smooth="yes"/>
      <point x="769" y="-481"/>
      <point x="861" y="-462"/>
      <point x="1015" y="-410" type="curve"/>
      <point x="1073" y="-659" type="line"/>
      <point x="922" y="-698"/>
      <point x="833" y="-710"/>
      <point x="696" y="-710" type="curve" smooth="yes"/>
      <point x="356" y="-710"/>
      <point x="132" y="-516"/>
      <point x="132" y="-296" type="curve" smooth="yes"/>
      <point x="132" y="-113"/>
      <point x="267" y="37"/>
      <point x="593" y="37" type="curve" smooth="yes"/>
      <point x="655" y="37" type="line"/>
      <point x="620" y="2" type="line"/>
    </contour>
    <contour>
      <point x="661" y="1119" type="line"/>
      <point x="976" y="1119" type="line"/>
      <point x="976" y="721" type="line"/>
      <point x="695" y="721" type="line"/>
      <point x="510" y="721"/>
      <point x="445" y="640"/>
      <point x="445" y="557" type="curve" smooth="yes"/>
      <point x="445" y="466"/>
      <point x="548" y="401"/>
      <point x="658" y="401" type="curve" smooth="yes"/>
      <point x="771" y="401"/>
      <point x="868" y="421"/>
      <point x="1025" y="474" type="curve"/>
      <point x="1085" y="218" type="line"/>
      <point x="932" y="178"/>
      <point x="838" y="166"/>
      <point x="696" y="166" type="curve" smooth="yes"/>
      <point x="347" y="166"/>
      <point x="117" y="366"/>
      <point x="117" y="593" type="curve" smooth="yes"/>
      <point x="117" y="780"/>
      <point x="257" y="934"/>
      <point x="592" y="934" type="curve" smooth="yes"/>
      <point x="697" y="934" type="line"/>
      <point x="661" y="900" type="line"/>
    </contour>
    <contour>
      <point x="1203" y="1065" type="line"/>
      <point x="-44" y="1065" type="line"/>
      <point x="-44" y="1293" type="line"/>
      <point x="1203" y="1293" type="line"/>
    </contour>
    <contour>
      <point x="655" y="1280" type="move" name="mark0"/>
    </contour>
  </outline>
</glyph>
<glyph name="ttayadeva" format="1">
  <advance width="2519"/>
  <outline>
    <contour>
      <point x="1982" y="1104" type="line"/>
      <point x="2331" y="1104" type="line"/>
      <point x="2331" y="0" type="line"/>
      <point x="1982" y="0" type="line"/>
    </contour>
    <contour>
      <point x="760" y="719" type="line"/>
      <point x="760" y="942" type="line"/>
      <point x="1420" y="942" type="line"/>
      <point x="1640" y="942"/>
      <point x="1771" y="811"/>
      <point x="1771" y="673" type="curve" smooth="yes"/>
      <point x="1771" y="515"/>
      <point x="1650" y="427"/>
      <point x="1442" y="396" type="curve"/>
      <point x="1442" y="488" type="line"/>
      <point x="1507" y="411"/>
      <point x="1598" y="355"/>
      <point x="1702" y="355" type="curve" smooth="yes"/>
      <point x="1847" y="355"/>
      <point x="1973" y="441"/>
      <point x="2029" y="572" type="curve"/>
      <point x="2029" y="112" type="line"/>
      <point x="1972" y="89"/>
      <point x="1921" y="78"/>
      <point x="1808" y="78" type="curve" smooth="yes"/>
      <point x="1500" y="78"/>
      <point x="1248" y="274"/>
      <point x="1140" y="535" type="curve"/>
      <point x="1140" y="541" type="line"/>
      <point x="1335" y="567"/>
      <point x="1441" y="603"/>
      <point x="1441" y="665" type="curve" smooth="yes"/>
      <point x="1441" y="705"/>
      <point x="1401" y="719"/>
      <point x="1305" y="719" type="curve" smooth="yes"/>
    </contour>
    <contour>
      <point x="656" y="1102" type="line"/>
      <point x="986" y="1102" type="line"/>
      <point x="986" y="719" type="line"/>
      <point x="726" y="719" type="line"/>
      <point x="524" y="719"/>
      <point x="429" y="630"/>
      <point x="429" y="537" type="curve" smooth="yes"/>
      <point x="429" y="435"/>
      <point x="536" y="363"/>
      <point x="654" y="363" type="curve" smooth="yes"/>
      <point x="773" y="363"/>
      <point x="873" y="385"/>
      <point x="1041" y="444" type="curve"/>
      <point x="1104" y="159" type="line"/>
      <point x="940" y="114"/>
      <point x="842" y="101"/>
      <point x="694" y="101" type="curve" smooth="yes"/>
      <point x="326" y="101"/>
      <point x="86" y="323"/>
      <point x="86" y="577" type="curve" smooth="yes"/>
      <point x="86" y="777"/>
      <point x="250" y="942"/>
      <point x="603" y="942" type="curve" smooth="yes"/>
      <point x="696" y="942" type="line"/>
      <point x="656" y="902" type="line"/>
    </contour>
    <contour>
      <point x="2543" y="1065" type="line"/>
      <point x="-43" y="1065" type="line"/>
      <point x="-43" y="1293" type="line"/>
      <point x="2543" y="1293" type="line"/>
    </contour>
  </outline>
</glyph>
